<svg xmlns="http://www.w3.org/2000/svg" xml:space="preserve" viewBox="0 0 128 85"><path fill="#ACB4B1" d="M121 86c-3.03 0-6.061 0-9.533-.389-.819-2.114-1.196-3.84-1.51-5.985.445-3.492.826-6.566 1.598-9.637 3.15.023 6.293-.268 6.028-3.741-.237-3.103 1.12-4.267 3.218-5.83 1.177-.875 1.494-2.907 2.388-4.507.19-.088.585-.223 1.01-.151.994.01 1.562-.053 2.47-.137 1.003.111 1.667.244 2.331.377 0 2.7 0 5.4-.418 8.549-5.54.621-12.176 8.232-11.495 13.312.136 1.016.942 1.938 1.416 2.915.842 1.737 1.666 3.482 2.497 5.224z"/><path fill="#BEBEC5" d="M72 86c-4.69 0-9.379 0-14.39-.302 1.871-3.111 4.066-5.921 6.46-8.975.812-.797 1.423-1.35 2.365-1.965.972-.248 1.613-.434 2.557-.449 1.21-.238 2.118-.647 3.406-1.041 1.134-.052 1.89-.12 2.966-.138.746-.031 1.17-.113 1.935-.173.793.052 1.245.083 1.683.474-.336 1.762-.657 3.164-1.295 4.718-4.22 1.246-5.1 4.446-5.687 7.851z"/><path fill="#B7BEC4" d="M72.469 86c.118-3.405.998-6.605 5.542-7.693 6.42 3.215 12.456 4.648 19.341 2.769C98.47 82.768 99.235 84.384 100 86H72.469z"/><path fill="#34352D" d="M96 1c2.37 0 4.741 0 7.539.374.418 1.123.41 1.87.021 2.616-3.985 1.059-2.458 3.269-1.591 5.352.401.966.912 1.931 1.068 2.944.446 2.883.734 5.791 1.025 9.038-.161.81-.264 1.27-.715 1.742-1.939.333-3.53.653-5.26.716-.447-.496-.753-.735-1.098-1.206-.04-.231-.11-.696-.093-.994.003-.696-.011-1.095.011-1.879.056-1.157.075-1.929.089-3.107-.03-1.487-.053-2.568-.043-4.021-.021-1.117-.077-1.861-.106-2.972-.318-1.752-.662-3.139-.964-4.931.067-1.495.092-2.583.117-3.672z"/><path fill="#696355" d="M36 86c-4.025 0-8.05 0-12.55-.396-.627-4.896-4.053-3.268-6.379-3.881.68-1.082 1.298-1.867 2.19-2.718.092-.723-.09-1.379-.268-2.02.004.015.033.027.121-.306 2.35-.436 4.61-.54 7.056-.49.414.378.61.63.769 1.232.808 2.304 1.617 4.285 2.76 7.084l2.999-4.794c-.971-1.342-1.822-2.517-2.545-3.893.33-.448.572-.65 1.22-.788 1.103.05 1.838.083 2.587.51.268 2.759-.71 5.729 2.94 6.775A75.95 75.95 0 0 1 36 86m-11.472-7.5s-.043.018 0 0z"/><path fill="#414138" d="M1 33c0-4.69 0-9.379.316-14.487 1.76-.778 3.204-1.137 4.99-1.502.794.001 1.248.008 1.717.342.619 1.1 1.223 1.87 1.92 2.833.233.446.42.658.787 1.149.828.848 1.522 1.375 2.216 2.096 0 .194.025.582.035.85.02.446.03.624-.235.846-.75.317-1.224.59-2.038.816-2.139.543-3.937 1.134-5.736 1.725.677 1.776 1.354 3.552 1.969 5.657-1.026 1.114-1.988 1.9-3.167 2.452C2.705 34.695 1.853 33.847 1 33z"/><path fill="#BABABC" d="M100.417 86c-1.182-1.616-1.948-3.232-3.066-5.382-.35-3.89-.346-7.246-.007-10.618 1.125-.369 1.913-.72 3.06-1.042a30.83 30.83 0 0 0 1.98.056c.172-.017.518-.042.637.332.666 2.013 1.557 3.624 1.689 5.295.296 3.77.216 7.571.29 11.359h-4.583z"/><path fill="#393A32" d="M129 17c0 4.69 0 9.379-.448 14.53-2.842.468-5.237.475-7.614.045.374-3.49.732-6.543 1.316-9.88.737-2.423 1.247-4.561 2.086-6.697.769 0 1.208-.003 1.734.32 1.033.78 1.98 1.23 2.926 1.682z"/><path fill="#9FA8A5" d="M121.4 86c-1.231-1.742-2.055-3.487-2.897-5.224-.474-.977-1.28-1.899-1.416-2.915-.681-5.08 5.954-12.691 11.495-12.862.418 1.068.418 2.134.097 3.643-1.438 1.083-2.554 1.725-3.988 2.582-3.622 5.22-.746 9.96.309 14.776h-3.6z"/><path fill="#908B7D" d="M36.444 86c-.15-1.113.143-2.226.491-4.014.365-1.467.675-2.26 1.33-3.031.807.031 1.268.04 1.742.238.151.373.29.558.428.743.042-.109.151-.266.114-.32-.158-.223-.359-.415-.549-.964-.02-.806-.034-1.266.102-1.985.73-1.063 1.311-1.866 2.193-2.642 1.752-.286 3.204-.6 4.82-.627 1.259 1.518 2.354 2.75 3.34 3.86-.921 1.412-1.682 2.578-2.807 3.769C46.189 82.7 45.095 84.35 44 86h-7.556z"/><path fill="#373123" d="M1 73c0-2.042 0-4.085.326-6.654 1.441-2.467 2.557-4.407 3.85-6.433.727.303 1.275.693 1.77 1.423.36 1.903.546 3.596 1.321 4.953.247.432 2.059-.03 1.725-.014 0-2.916 0-4.582.349-6.24 1.453.324 2.558.639 3.74 1.27.693 1.442 1.308 2.568 1.657 3.618-2.765 1.646-5.263 3.37-8.11 5.113C5.187 71.038 3.093 72.019 1 73z"/><path fill="#332C22" d="M20 1c2.042 0 4.085 0 6.674.305 1.128 1.44 1.71 2.576 2.251 4.097.675 2.454 1.39 4.524 2.2 6.896.725 1.387 1.355 2.47 1.945 3.89-.634 1.162-1.228 1.988-1.896 2.554-.1-.439-.126-.617-.254-1.008-.29-.47-.526-.675-.907-1.115-.72-.735-1.341-1.182-2.067-1.927-.722-.754-1.34-1.212-2.185-1.952-.661-1.129-1.096-1.975-1.344-3.103-.666-1.437-1.519-2.593-2.399-4.092C21.328 3.801 20.664 2.401 20 1z"/><path fill="#7E7166" d="M17.01 82.02c2.387.316 5.813-1.312 5.977 3.584-6.654.396-13.32.424-19.987.352-.67-.007-1.333-.623-1.606-1.458 4.442-.1 5.945-1.755 4.877-5.703.455.03.637.053 1.004.4 3.369 1.159 6.552 1.992 9.735 2.825z"/><path fill="#A8A7AE" d="M43 1c1.067 0 2.134 0 3.608.387a73.566 73.566 0 0 1 3.495 8.934c-.392 1.452-.728 2.557-1.089 3.904-.025.241-.059.726-.338.615-1.837.222-3.393.553-4.945.883-.22-2.17-.451-4.435-.693-7.08-.016-1.143-.021-1.906-.031-3.053-.04-1.158-.076-1.931-.086-3.018.044-.733.062-1.153.079-1.572z"/><path fill="#807F7E" d="M65 1c2.042 0 4.085 0 6.56.327.45.762.469 1.197.466 2.035.954 2.495 1.93 4.586 2.817 6.926-.35.711-.61 1.173-1.136 1.534-.774-.36-1.281-.617-2.083-.783-.048 1.025.198 1.959.48 3.281.056 1.17.077 1.95-.196 2.716-.488-.016-.683-.02-1.218-.08-1.44-.354-2.54-.651-3.685-1.199-.06-.419-.074-.587.168-1.01.332-2.755 3.178-5.44-.42-7.922-.673-.76-1.172-1.304-1.683-2.19-.067-.794-.124-1.247-.17-1.913.011-.214-.034-.64.008-.91.059-.45.075-.631.092-.812z"/><path fill="#3C3C3A" d="M105.428 86c-.502-3.788-.422-7.588-.718-11.359-.132-1.67-1.023-3.282-1.402-5.367.674-.723 1.18-1 2.086-1.276 1.462.003 2.524.005 3.59.425-.704 4.82-1.41 9.223-2.116 13.625l1.34.278c.563-.76 1.124-1.52 1.686-2.281.377 1.726.754 3.452 1.119 5.566-1.727.389-3.442.389-5.585.389z"/><path fill="#AAA" d="M64.89 2.936c.056.452.113.905-.254 1.708-2.597.474-4.77.599-6.944.723L57.39 6.67c1.286.753 2.715 1.344 3.811 2.312.854.754 1.293 1.977 1.612 2.757-5.023-.53-8.63-1.955-7.778-8.034.423-1.092.694-1.898.965-2.704h8.55c.433.18.417.362.27.906-.24.628-.173.85.07 1.03z"/><path fill="#3B3C34" d="M129 35c0 4.69 0 9.379-.43 14.523-1.568.558-2.707.661-4.124.782-.653.039-1.025.06-1.509-.252-.73-1.566-1.35-2.8-1.598-4.058 1.48-1.364 2.59-2.703 4.028-4.148.583-1.385.606-2.779 1.16-3.913.543-1.115 1.626-1.967 2.473-2.934z"/><path fill="#4A4436" d="M7.089 78.87c-.181-.022-.363-.045-1-.314C4.086 78.207 2.543 78.104 1 78v-4.583c2.093-1.398 4.187-2.38 6.66-3.022 1.97 4.763 5.167.373 7.333 1.927-.051.749-.096 1.176-.512 1.618-2.712 1.654-5.052 3.292-7.392 4.93z"/><path fill="#A19EA3" d="M19.563 1c1.101 1.4 1.765 2.801 2.24 4.755-1.99 1.8-3.883 2.937-5.555 4.336-.897.75-1.416 1.952-2.15 2.539-.326-2.48-.607-4.549-.86-7.036C13.178 3.784 13.09 2.392 13 1h6.563z"/><path fill="#90918E" d="M43.012 5.975c.005.762.01 1.525-.322 2.775-1.12 3.408-1.902 6.328-2.891 9.257-.207.01-.621.034-.867-.198-1.103-.442-1.96-.652-2.696-1.173.364-2.091.605-3.871.796-5.983-.08-.776-.108-1.222.188-1.72C42.28 5.226 36.436 3.643 36 1h6.563c.42.42.402.839.096 1.67-.076 1.376.139 2.34.353 3.305z"/><path fill="#A0A199" d="M83 1c2.37 0 4.741 0 7.508.34.445.794.493 1.247.47 2.041-.17 1.032-.27 1.723-.632 2.473-.747.549-1.232 1.038-2.026 1.604-.478.204-.647.331-1.225.417-1.764.153-3.118.349-4.58.194-.169-1.542-.228-2.733-.12-4.206.313-1.142.46-2.003.605-2.863z"/><path fill="#37392B" d="M8.008 17.025c-.454-.006-.908-.013-1.718-.393C5.727 12.995 3.382 12.97 1 13c0-1.389 0-2.778.328-4.507a36.08 36.08 0 0 1 8.703.868c.227 1.075.346 1.798.358 2.887-.079 1.118-.05 1.872-.103 3.012-.078 1.178-.076 1.969-.136 2.74-.062-.02-.19-.04-.439-.146-.734-.347-1.218-.588-1.703-.829z"/><path fill="#8D8F89" d="M63.87 76.967c-2.194 2.81-4.389 5.62-6.727 8.731-1.857.302-3.572.302-5.715-.07-.42-1.115-.413-1.859-.058-2.676 2.125-1.682 3.903-3.29 6.067-4.927 2.402-.372 4.417-.715 6.433-1.058z"/><path fill="#828282" d="M55.55 1c.179.806-.092 1.612-.83 2.83-.936 2.44-1.406 4.467-1.923 6.701l-2.638-.555c-1.048-2.734-2.095-5.469-3.151-8.59C49.7 1 52.4 1 55.55 1z"/><path fill="#51524A" d="M129 34.625c-.847 1.342-1.93 2.194-2.474 3.309-.553 1.134-.576 2.528-1.319 3.601-2.375-3.325-4.263-6.444-5.84-9.56.726.013 1.14.025 1.554.037 2.394-.007 4.789-.014 7.631-.017.448.755.448 1.505.448 2.63z"/><path fill="#8B9491" d="M125.009 71.009c1.116-.642 2.232-1.284 3.67-1.967.321 3.65.321 7.344-.085 11.489-1.462-.631-3.132-1.566-3.435-2.829-.508-2.121-.146-4.451-.15-6.693z"/><path fill="#5B5A4B" d="M36.896 8.985c.028.446.056.892-.146 1.785-2.06.707-3.89.966-5.72 1.225-.716-2.07-1.43-4.139-1.747-6.607C30.788 3.658 31.894 2.329 33 1c.444 0 .889 0 1.667.388-.243 2.27-.82 4.151-1.5 6.367l3.73 1.23z"/><path fill="#949D9A" d="M124.69 71.224c.323 2.027-.039 4.357.47 6.478.302 1.263 1.972 2.198 3.434 3.29-.264 1.873 2.43 5.756-3.094 5.008-1.555-4.817-4.43-9.555-.81-14.776z"/><path fill="#444735" d="M9.924 9.01c-2.756-.285-5.513-.57-8.596-.933C1 6 .893 3.989 1.09 2.009c.04-.396 1.242-.676 2.43-.641 1.153 3.544 2.565 5.86 6.357 5.943.05.79.049 1.245.046 1.7z"/><path fill="#262012" d="M1 47c0-1.714 0-3.429.418-5.57 1.813-.45 3.208-.473 4.846-.477.245.02.734.05.795.394.018 2.112-.024 3.88-.495 5.649L1 47z"/><path fill="#706559" d="M1 78.428c1.544-.324 3.087-.22 4.814.121 1.525 4.194.022 5.85-4.42 5.449C1 82.286 1 80.57 1 78.428z"/><path fill="#67695D" d="M37.22 8.933c-1.7-.402-3.078-.856-4.052-1.178.68-2.216 1.256-4.097 1.833-6.367C35 1 35.5 1 35.75 1c.686 2.642 6.53 4.226 1.47 7.933z"/><path fill="#2B2517" d="M1 47.25c1.712-.251 3.424-.252 5.604.023.736.757 1.003 1.237 1.335 1.99.05 1.111.037 1.95-.276 2.713-1.07.141-1.84.358-2.852.388C3.38 52.117 2.19 52.059 1 52c0-.444 0-.889.228-1.78.076-1.037-.076-1.628-.228-2.22v-.75z"/><path fill="#36382B" d="M9.825 6.974c-3.74.254-5.15-2.062-5.804-5.606C5.714 1 7.43 1 9.558 1.412c.46 1.512.505 2.61.513 4.02-.106.72-.176 1.132-.246 1.542z"/><path fill="#898476" d="M51.024 83.026c-.009.743-.017 1.487-.025 2.602-2.04.372-4.082.372-6.562.372.658-1.65 1.752-3.3 3.447-4.774 1.446.717 2.293 1.258 3.14 1.8z"/><path fill="#393325" d="M6.02 40.934c-1.394.023-2.789.045-4.602.067C1 38.629 1 36.259 1 33.444c.853.403 1.705 1.25 2.837 2.665a444.037 444.037 0 0 1 2.183 4.825z"/><path fill="#434538" d="M1 13.417c2.382-.447 4.727-.422 4.95 3.22-1.43.739-2.874 1.098-4.634 1.41C1 16.611 1 15.222 1 13.417z"/><path fill="#7B6E63" d="M74 1c1.714 0 3.429 0 5.52.37.387 1.12.396 1.868.05 2.607-1.41.658-2.465 1.324-3.873 1.985-.823-.035-1.293-.064-1.752-.482.018-1.423.026-2.459.043-3.74C73.997 1.492 74 1 74 1z"/><path fill="#646D69" d="M124.725 50.287c1.138-.103 2.277-.206 3.845-.298.43 1.725.43 3.44.43 5.583-.664.295-1.328.162-2.449-.17-.763-.603-1.07-1.005-1.314-1.784-.128-1.362-.32-2.346-.512-3.33z"/><path fill="#62635B" d="M111 1c2.37 0 4.741 0 7.538.402.447 1.208.467 2.014.262 2.768-.224-.051-.673-.147-1.057-.151-1.144-.026-1.903-.048-2.99-.218-1.489-.41-2.652-.672-3.807-1.245.023-.726.039-1.141.054-1.556z"/><path fill="#2D2E26" d="M120 1c3 .333 6 .667 8.605 1.455-2.135.812-3.875 1.17-5.944 1.498-.77-.045-1.21-.061-1.784-.355-.382-1.051-.63-1.825-.877-2.598z"/><path fill="#6B6654" d="M32.572 1c-.678 1.33-1.784 2.658-3.248 4.003-.94-1.122-1.522-2.257-2.214-3.698C28.714 1 30.429 1 32.572 1z"/><path fill="#3C3628" d="M4.998 59.999c-1.115 1.94-2.23 3.88-3.672 5.91C1 64.286 1 62.571 1.226 60.39c.226-.467.678-.541 1.065-.497 1.16.065 1.934.085 2.707.106z"/><path fill="#A39D8F" d="M1 52.375c1.19-.316 2.38-.258 3.901.274.525 1.227.72 1.98.63 2.77-.469.07-.655.104-.905.105-.062-.035-.2.004-.541-.083-.575-.066-.809-.044-1.227-.245-.742-.214-1.3-.205-1.858-.196v-2.625z"/><path fill="#5F5F56" d="M91.05 3.04a14.082 14.082 0 0 1-.098-1.7C92.39 1 93.778 1 95.583 1c.392 1.089.367 2.177.012 3.66-.913.392-1.494.388-2.224.076-.873-.77-1.597-1.233-2.321-1.696z"/><path fill="#2C2D25" d="M129 16.6c-.947-.051-1.893-.503-2.92-1.654-.103-1.446-.127-2.193.075-2.96.227-.019.678-.066.898.155.795.434 1.371.646 1.947.859v3.6z"/><path fill="#555552" d="M10.107 5.122c-.044-1.1-.089-2.198-.12-3.71C10.75 1 11.5 1 12.625 1c.464 1.392.553 2.784.308 4.59-.537.415-.74.415-1.131.223-.691-.36-1.193-.526-1.695-.691z"/><path fill="#65665E" d="M122.99 3.983c1.74-.358 3.48-.716 5.615-1.028.395.49.395.934-.026 1.712-1.258.397-2.097.46-3.262.509-.982-.092-1.638-.168-2.298-.482-.005-.237-.03-.711-.03-.711z"/><path fill="#8C8D85" d="M103.94 3.993c.008-.748.017-1.496.043-2.619 1.084-.374 2.15-.374 3.565-.002.344 1.123.34 1.874-.057 2.612-1.445-.005-2.499.002-3.552.009z"/><path fill="#62635B" d="M125.644 5.19c.838-.063 1.677-.126 2.935-.19.421.75.421 1.5.049 2.69-1.126.412-1.88.383-2.64.089-.032-.438-.059-.611-.084-1.091-.085-.704-.172-1.1-.26-1.498z"/><path fill="#3F3A2C" d="M79.926 3.986c-.01-.748-.02-1.496.023-2.615C80.75 1 81.5 1 82.625 1c.23.86.083 1.72-.613 2.823-1.062.216-1.574.19-2.086.163z"/><path fill="#51524A" d="M107.883 3.997c.004-.751.009-1.502.065-2.625C108.75 1 109.5 1 110.625 1c.36.415.344.83.146 1.727-.415.712-.631.956-1.173 1.22-.8.022-1.258.036-1.715.05z"/><path fill="#44453D" d="M119.75 1c.498.773.745 1.547 1.127 2.893.135.767.136.963.17 1.16.035.003.032.072-.204.11-.763-.289-1.29-.615-1.818-.942-.02-.805-.04-1.61-.043-2.819C119 1 119.5 1 119.75 1z"/><path fill="#2C2D25" d="M125.994 8.043c.754.03 1.508.059 2.634.023.372.378.372.823.054 1.612-.742.348-1.166.352-1.806.157-.438-.73-.66-1.261-.882-1.792z"/><path fill="#1B1C14" d="M127.092 10.034c.424-.004.848-.008 1.59-.023.318.739.318 1.489.318 2.614-.576.162-1.152-.05-1.9-.797-.118-.954-.063-1.374-.008-1.794z"/><path fill="#635D4F" d="M1 55.333c.558-.342 1.116-.35 1.831.192.154.772.15.991-.125 1.257-.451.07-.632.095-1.038.133A9.038 9.038 0 0 0 1 57v-1.667z"/><path fill="#484234" d="M1 57.375c0-.375.444-.447.703-.182.269.451.279.637.28 1.13-.033.713-.056 1.12-.08 1.526 0 0-.451.074-.677.113C1 59.25 1 58.5 1 57.375z"/><path fill="#58504B" d="M73.667 1c.333 0 .33.493.079.86a7.759 7.759 0 0 1-1.698 1.099c-.019-.435-.038-.87-.052-1.632C72.444 1 72.889 1 73.666 1z"/><path fill="#534D3F" d="M1 48.333c.152.259.304.85.228 1.554C1 49.556 1 49.111 1 48.333z"/><path fill="#B4BBB8" d="M123 56c-.705 1.51-1.022 3.543-2.199 4.419-2.098 1.562-3.455 2.726-3.218 5.829.265 3.473-2.879 3.764-6.087 3.372-.837-1.448-1.223-2.525-1.623-4.055-.156-3.158-.298-5.864-.306-8.891.254-.768.373-1.215.825-1.654.774-.01 1.216-.029 1.97-.027.728.002 1.144-.015 1.945-.017 1.155.018 1.925.02 3.025.035.77.014 1.21.014 1.729.296 1.089.368 2.1.455 3.318.578.208.036.621.115.621.115z"/><path fill="#4C4C4B" d="M109.886 66.018c.387 1.077.773 2.154 1.22 3.6-.323 3.442-.704 6.516-1.148 10.008-.626 1.18-1.187 1.94-1.75 2.7l-1.34-.278c.706-4.402 1.412-8.805 2.118-13.997-.007-1.286-.013-1.781.214-2.224.232.054.686.19.686.19z"/><path fill="#757E7B" d="M123.19 55.911c-.19.089-.603.01-.925-.27-.414-.435-.506-.59-.55-1.199.115-1.065.18-1.677.584-2.179.822.62 1.306 1.13 1.74 1.939-.122.695-.194 1.09-.265 1.486 0 0-.396.135-.585.223z"/><path fill="#919A97" d="M124.199 55.76c-.354-.468-.282-.863.11-1.536.503-.26.684-.245.865-.229.307.402.614.804 1.038 1.428-.45.284-1.02.347-2.013.337z"/><path fill="#B9C2C0" d="M97.008 70.017 97 80.542c-6.532 2.413-12.569.98-18.67-2.388-.004-1.56.317-2.96 1.02-4.783.867-.531 1.35-.642 2.162-.71 1.391-.243 2.454-.53 3.88-.762 1.478-.207 2.59-.47 4.075-.764 1.73-.38 3.09-.728 4.835-1.089 1.16-.018 1.933-.024 2.707-.03z"/><path fill="#6A5D49" d="M68.69 74.138c-.642.186-1.283.372-2.258.643-.333.083-.36.068-.323-.267.018-.788 0-1.242-.019-1.99-.042-1.412-.085-2.529-.113-4.001.01-1.068.005-1.78.411-2.503 1.78-.01 3.149-.013 4.604.394.094 1.794.103 3.178-.212 4.6-.911 1.065-1.5 2.094-2.09 3.124z"/><path fill="#858276" d="M64.07 76.723c-2.216.587-4.231.93-6.662.93-.745-1.772-1.076-3.203-1.17-4.654.236-.019.708-.069 1.079-.067 1.808-.308 3.246-.618 4.716-.56 1.367 1.072 2.703 1.775 4.039 2.477 0 0 .027.015.03-.007-.609.53-1.22 1.084-2.031 1.881z"/><path fill="#828B8E" d="M81.182 72.617c-.483.112-.966.223-1.817.394-.82.029-1.273-.002-2.143-.349-1.084-.627-1.753-.938-2.426-1.377-.005-.128.202-.28.206-.508.003-.228.086-.677.516-.672 2.138.138 3.847.27 5.57.669l.094 1.843z"/><path fill="#857E77" d="M68.992 74.31c.287-1.202.877-2.231 2.063-3.285.75.077.904.179 1.05.605-.035.758-.061 1.19-.087 1.622-.908.41-1.815.82-3.026 1.057z"/><path fill="#4C4C4B" d="M72.398 73.268c-.354-.448-.328-.88.06-1.723 1.089-.453 1.815-.496 2.54-.54 0 0-.207.152-.15.554.103.775.149 1.148.195 1.521-.756.068-1.51.136-2.645.188z"/><path fill="#6B7071" d="M75.364 73.13c-.367-.423-.413-.796-.511-1.443.616.037 1.285.348 2.03.954-.348.376-.773.458-1.519.49z"/><path fill="#6E6F67" d="M107.49 3.984c.85-.001 1.308-.015 2.18.264 1.018.757 1.623 1.22 2.23 1.935.008.422.012.59.014 1.142.052 1.148.106 1.912-.09 2.98-1.477 3.754-2.703 7.204-4.308 10.659-1.384.007-2.39.01-3.395.011-.35-2.898-.638-5.806-1.084-8.69-.156-1.012-.667-1.977-1.068-2.943-.867-2.083-2.394-4.293 1.591-5.352 1.432-.004 2.486-.011 3.93-.006z"/><path fill="#2A281E" d="M98.227 24.039c1.59-.32 3.181-.64 5.132-.62.386 2.094.412 3.846.497 5.92.44 1.065.82 1.808 1.125 2.915-.722 2.145-1.613 3.88-1.96 5.716-.663 3.52-2.305 2.126-4.019.611a187.29 187.29 0 0 0-2.019-7.95c.336-2.393.79-4.493 1.244-6.592z"/><path fill="#777264" d="M98.086 23.782c-.313 2.356-.767 4.456-1.429 7.095-3.996 1.082-8.058 2.814-10.411-2.135.718-2.075 1.201-3.878 1.96-5.813 1.011-.408 1.75-.685 2.686-.726.832.76 1.464 1.283 2.126 2.017.167.437.304.662.44.888.243-.303.485-.605 1.034-.992a41.42 41.42 0 0 0 2.537-1.308c.305.239.61.478 1.057.974z"/><path fill="#65665E" d="M103.797 29.018c-.026-1.753-.052-3.505-.09-5.611.09-.813.194-1.273.355-2.083 1.065-.35 2.07-.353 3.493.016a63.574 63.574 0 0 1 3.438 3.992c.412 1.386.708 2.527.979 3.961-.325.769-.625 1.245-1.224 1.642-1.44-.722-2.581-1.365-4.125-2.037-1.212.02-2.019.07-2.826.12z"/><path fill="#74756D" d="M93.52 5.044c.58.004 1.162.008 2.032.023.633 1.397.977 2.784 1.02 4.614-.742.797-1.18 1.15-1.988 1.463-1.107-.088-1.846-.136-2.73-.521-.367-1.525-.59-2.713-.494-3.919.932-.565 1.546-1.112 2.16-1.66z"/><path fill="#484234" d="M96.99 22.576c-.705.64-1.448 1.047-2.796 1.477-.805 0-1.005-.022-1.206-.044-.632-.523-1.264-1.046-1.93-2.1.7-.972 1.433-1.413 2.45-1.87.66-.025 1.038-.035 1.496.246.678.725 1.276 1.16 1.874 1.595 0 0 .071.465.111.696z"/><path fill="#5C5D56" d="M96.92 12.947c.023 1.081.046 2.162-.29 3.654-1.089.426-1.818.44-2.638.155-.728-.759-1.366-1.217-2.008-1.918-.005-.241-.013-.725.303-.794 1.107-.724 1.898-1.379 2.938-1.927.73.348 1.213.59 1.695.83z"/><path fill="#4B4638" d="M94.082 17.057c.73-.015 1.46-.03 2.554-.05.346.767.327 1.54-.051 2.67-.793.345-1.227.331-1.661.317-.378.01-.756.02-1.45-.283-.01-1.094.3-1.874.608-2.654z"/><path fill="#696A62" d="M96.953 12.575c-.515.131-.998-.11-1.743-.664-.264-.314-.258-.727-.258-.727.44-.353.878-.706 1.593-1.137.331.667.387 1.411.408 2.528z"/><path fill="#5B5648" d="M95.004 20.285c.354-.277.788-.263 1.544-.223.337.425.351.824.348 1.52-.616-.137-1.214-.572-1.892-1.297z"/><path fill="#464032" d="M33.947 75.147c-.736-.034-1.471-.067-2.578-.489-1.059-2.156-1.744-3.923-2.419-5.99.226-1.018.382-2.34.661-2.366 4.302-.407 5.372-1.916 4.332-6.705.144-1.054.262-1.754.718-2.49 1.025-.033 1.712-.03 2.325.317.91 4.063 1.893 7.782 2.908 11.883.043 1.147.053 1.913-.224 2.853-2.1 1.112-3.911 2.05-5.723 2.987z"/><path fill="#655D50" d="M7.275 79.196c2.154-1.964 4.494-3.602 7.55-5.215.942.052 1.17.079 1.375.457.927 1.092 1.876 1.833 2.826 2.574 0 0-.029-.012-.042.323-.007.803-.002 1.27.003 1.737-.618.784-1.236 1.569-1.916 2.65-3.244-.535-6.427-1.368-9.796-2.526z"/><path fill="#3A3426" d="M28.939 68.968c.686 1.767 1.371 3.534 2.062 5.673-.276.527-.518.729-1.15 1.306-1.256.604-2.084.878-2.912 1.152-.16-.28-.355-.532-.862-1.224-2.18-1.616-4.082-2.766-6-4.282.016-1.102.047-1.836.425-2.579 1.402-.348 2.457-.689 3.867-.963 1.76.35 3.165.633 4.57.917z"/><path fill="#5D5749" d="M33.96 75.54c1.799-1.33 3.61-2.268 5.937-3.201 1.042.555 1.57 1.107 2.097 1.658-.58.804-1.161 1.607-2.149 2.62-.913.911-1.42 1.613-1.926 2.316-.31.793-.619 1.586-.964 2.707-3.706-.371-2.727-3.341-2.995-6.1z"/><path fill="#575143" d="M26.939 77.421c.828-.596 1.656-.87 2.785-1.273 1.152 1.046 2.003 2.221 2.974 3.563l-3 4.794c-1.142-2.8-1.951-4.78-2.76-7.084z"/><path fill="#484234" d="M20.093 71.96c1.902 1.15 3.804 2.299 5.8 3.763-2.169.417-4.43.52-6.779.956-1.038-.408-1.987-1.15-2.733-2.372.44-.675.622-.911 1.069-1.239a34.391 34.391 0 0 0 2.643-1.108zM19.261 79.005c-.28-.4-.284-.867-.28-1.684.19.305.372.96.28 1.684z"/><path fill="#575143" d="M24.507 78.509c-.022.009.021-.01 0 0z"/><path fill="#3F3A2C" d="M6.264 40.953c-.879-1.438-1.513-2.858-2.21-4.61.899-1.118 1.861-1.904 3.272-3.017 1.476-.339 2.504-.35 3.583.075.128 2.187.206 3.939.247 6.001-.067.727-.097 1.143-.153 1.836-.046.46-.066.644-.42.762a184.226 184.226 0 0 1-3.585-.998s-.49-.03-.734-.049z"/><path fill="#36372F" d="M10.858 32.966c-1.028.01-2.056.021-3.469.031-1.063-1.777-1.74-3.553-2.417-5.33 1.799-.59 3.597-1.18 5.728-1.318.368 1.533.403 2.614.392 4.061.005 1.103.056 1.84.022 2.562-.085-.013-.256-.006-.256-.006z"/><path fill="#5A5B54" d="M10.597 21.013c-.234-.17-.421-.381-.615-1.164a23.325 23.325 0 0 1-.022-1.889s.128.02.558.028c1.42.018 2.412.026 3.44.399-.19 1.263-.413 2.163-1.083 2.956-1.057-.182-1.667-.256-2.278-.33z"/><path fill="#65665E" d="M11.139 30.043c-.036-1.08-.071-2.16-.099-3.647.482-.679.956-.952 1.831-1.083.602.372.842.55 1.125.682.004.005.01.016-.13.334-.39 1.442-.64 2.567-1.196 3.687-.715.007-1.123.017-1.531.027z"/><path fill="#66675F" d="M12.97 24.013s-.024-.388.063-1.034c.152-.946.217-1.244.642-1.381.568 1.616.777 3.07.823 4.497l-.492-.084s-.006-.011-.054-.3a12.25 12.25 0 0 0-.981-1.698z"/><path fill="#434538" d="M9.711 17.854c.238.56.227 1.013.178 1.803-.643-.434-1.247-1.205-1.866-2.304.47-.087.954.154 1.688.501z"/><path fill="#767771" d="M13.316 21.436c-.066.299-.131.597-.283 1.348-.78-.074-1.475-.601-2.303-1.45.478-.247 1.088-.173 2.11.01.412.11.476.092.476.092z"/><path fill="#56574F" d="M12.98 24.28c.302.203.613.672.968 1.426-.235.158-.475-.02-.801-.437-.136-.364-.146-.542-.166-.988z"/><path fill="#C7C8C7" d="M97.344 70c-1.11.022-1.883.028-3.02.036-.365.002-.38.047-.354-.293.24-2.2.794-3.865-2.456-3.586-2.2.188-4.522-1.063-6.778-1.829.01-.158.278-.33.596-.406 2.76-1.997 3.588-3.73-.325-5.116a14.25 14.25 0 0 1-.507-1.696c-.06-.633-.052-.888.125-1.344 3.65-.098 7.132.003 10.883.123.629.013.988.006 1.678.061 1.157.397 1.985.732 2.813 1.523.01 3.83.02 7.203.024 10.796-.004.22.023.658.023.658-.789.352-1.577.704-2.702 1.073z"/><path fill="#BFBFB9" d="M100.028 68.05c-.01-3.374-.02-6.747-.003-10.954.04-1.34.053-1.844.457-2.29 1.438.14 2.485.22 3.697.517.336.272.507.329.609.602-.04.527.06.811.18 1.516.04 2.834.13 5.223.157 7.977-.086 1.103-.109 1.841-.13 2.579-.507.277-1.013.554-1.807.902-.286.073-.632.098-1.014-.123-.97-.39-1.558-.558-2.146-.727z"/><path fill="#939393" d="M100.023 68.269c.593-.051 1.181.118 1.979.524-.274.224-.756.21-1.598.165-.358-.03-.385-.47-.38-.69z"/><path fill="#23241C" d="M125.317 5.176c.415.411.502.808.349 1.752-.695 2.066-1.15 3.586-1.628 5.475-.025 1.11-.026 1.851-.028 2.592-.51 2.139-1.019 4.277-1.797 6.717-.27.302-.344.351-.482.059-1.025-1.456-1.912-2.62-2.528-3.93.806-4.337 1.34-8.527 1.876-12.716 0 0 .003-.069.305-.05.748-.035 1.193-.089 1.64-.143.655.076 1.31.152 2.293.244z"/><path fill="#56574F" d="M120.938 31.575c-.431.425-.845.413-1.837.478-1.46-.942-2.342-1.961-3.119-3.275 1.285-.847 2.463-1.401 3.793-2.026-.275-1.193-.56-2.424-.61-3.88 1.058-.42 1.881-.615 2.704-.809 0 0 .075-.05.116-.066-.315 3.035-.673 6.089-1.047 9.578z"/><path fill="#42433B" d="M124.34 14.998c-.328-.744-.327-1.485.01-2.606.75-.381 1.164-.383 1.58-.385.023.746.047 1.493.064 2.612-.446.376-.885.379-1.654.379z"/><path fill="#7C7C72" d="M56 73.019c.332 1.43.663 2.862 1.023 4.664-1.75 1.979-3.528 3.587-5.653 5.27-1.193-.469-2.04-1.01-3.123-1.751.526-1.366 1.287-2.532 2.209-3.943-.987-1.11-2.082-2.343-3.039-4.016a30.715 30.715 0 0 1 7.653-1.97c.343.773.637 1.26.93 1.746z"/><path fill="#6E6757" d="M55.02 70.988c-2.488.605-4.976 1.21-7.767 1.97a48.437 48.437 0 0 1-4.958 1.067c-.829-.58-1.356-1.13-2.11-1.86-.238-.945-.248-1.71-.151-3.086.423-1.04.739-1.47 1.39-1.9 2.411-.44 4.488-.878 6.686-1.08.371.482.621.729.996 1.3 2.054 1.413 3.984 2.501 5.914 3.589z"/><path fill="#7D7769" d="M38.265 78.955c.16-.725.667-1.427 1.43-2.08.271.511.286.971.303 1.778.002.347-.003.353-.003.353-.462-.01-.923-.02-1.73-.051zM40.002 78.999c.188.202.39.394.547.618.037.053-.072.21-.114.32a2.914 2.914 0 0 1-.428-.744C39.995 79.006 40 79 40.002 79z"/><path fill="#565043" d="M14.004 60.988c-1.105-.314-2.21-.63-3.845-1.193a12.46 12.46 0 0 1-2.183-2.724c.023-.077.074-.228.446-.203 3.447-.27 6.55-4.125 9.585.47-.005 1.104-.006 1.84-.226 2.78-.41.762-.602 1.32-1.082 1.747a76.205 76.205 0 0 0-2.695-.877z"/><path fill="#3C3628" d="M15 72c-2.173-1.232-5.37 3.158-6.992-1.626a43.907 43.907 0 0 1 8.073-5.448c1.068.088 1.526.095 1.88.387-.725 2.082-1.346 3.88-2.163 5.815-.438.347-.64.592-.798.872z"/><path fill="#3E372C" d="M18.064 65.03c-.457-.009-.915-.016-1.717-.027-.958-1.13-1.573-2.256-2.266-3.699.725-.067 1.527.182 2.967.713 3.601 1.228 7.742.86 6.966 5.968-1.055.34-2.11.68-3.556.666-1.059-1.444-1.726-2.533-2.394-3.622z"/><path fill="#3C3628" d="M7.953 57.148c.558.8 1.117 1.599 1.858 2.639.181 1.906.181 3.572.181 6.488.334-.016-1.478.446-1.725.014-.775-1.357-.96-3.05-1.321-5.346.055-1.78.057-2.827.296-3.87.239.006.71.075.71.075z"/><path fill="#3F3A2C" d="M7.004 57.068 7 60.603c-.549.003-1.097-.387-1.824-.69-.95.065-1.724.045-2.885-.02-.364-.45-.34-.857-.098-1.744.407-.791.595-1.102.783-1.413.005-.22.009-.44.04-.988.26-.351.494-.373 1.035-.17.308.225.561.345.561.345l.077-.364c.187-.036.373-.07.992.174.729.632 1.026.984 1.323 1.335z"/><path fill="#B4ACB1" d="M14.142 13.04c.69-.997 1.21-2.198 2.106-2.949 1.672-1.4 3.564-2.537 5.58-3.993 1.07.946 1.923 2.102 2.243 3.564-5.357.792-3.708 4.569-4.461 7.249-2.077-.36-3.786-.66-5.532-1.321-.004-1.092.03-1.82.064-2.55z"/><path fill="#67695D" d="M31.125 12.298c1.735-.562 3.565-.821 5.677-1.197.04 1.664-.202 3.444-.671 5.588-.227.364-.438.471-.625.463-.188-.009-.562.03-.797-.128-.69-.497-1.145-.835-1.6-1.173a85.296 85.296 0 0 1-1.984-3.553z"/><path fill="#A8A0A4" d="M19.976 16.972c.387-2.741-1.262-6.518 3.908-7.028.78.82 1.216 1.667 1.697 3.014-.242.742-.531.982-1.134 1.215-1.366.938-2.417 1.884-3.72 2.825-.417-.012-.584-.019-.75-.026z"/><path fill="#3B3C31" d="M33.07 16.187c.494.002.95.34 1.649 1.216-.128 2.264-.5 3.99-1.19 5.62-1.388-.404-2.457-.713-3.51-1.358.42-1.112.824-1.887 1.229-2.662.594-.827 1.188-1.653 1.822-2.816z"/><path fill="#767771" d="M31.174 18.742c-.331 1.036-.736 1.811-1.275 3.101-.134.515-.32.901-.617.986-.68.25-1.063.417-1.657.511-.211-.072-.593-.303-.657-.742-.599-1.108-1.134-1.776-1.32-2.743.655-.312.96-.326 1.577-.45.799-.542 1.286-.975 2.015-1.446.243-.038.706-.2.973-.14.447.082.628.105.81.127.025.179.052.357.151.796z"/><path fill="#9F9E9C" d="M24.76 14.181c.29-.24.579-.481 1.048-.94.798.24 1.416.697 1.884 1.534-.492.443-.835.507-1.366.485-.647-.416-1.106-.748-1.565-1.079z"/><path fill="#4B4638" d="M26.514 15.345c.343-.063.686-.127 1.283-.273.875.365 1.495.812 2.175 1.582.059.323-.019.393-.288.4-.448.021-.628.035-1.177.013-.86-.11-1.35-.183-1.896-.62-.07-.61-.083-.856-.097-1.102zM30.92 17.734c-.079.19-.26.167-.706-.092-.266-.237-.26-.595-.26-.595s.077-.07.118-.105c.322.117.557.322.848.792z"/><path fill="#898989" d="M50.103 10.321c.987-.15 1.918.047 2.694.21.517-2.234.987-4.26 1.77-6.415-.383 5.667 3.223 7.091 8.135 7.86-.058.933-.31 1.392-.883 1.952-1.14 1.112-1.96 2.122-3.09 3.037-3.12-.723-5.93-1.351-8.872-2.17-.328-.435-.556-.641-.818-.811.336-1.106.672-2.211 1.064-3.663z"/><path fill="#999B92" d="M49.014 14.225c.287-.071.515.135.99.883.9 3.405 1.521 6.305 1.742 9.244-1.2.063-2 .088-3.146-.015-1.767-.474-3.188-.82-4.818-1.419-1.81-.485-3.41-.72-5.056-1.11-.046-.155-.322-.348-.21-.37.111-.021.099-.248.194-.551.13-1.156.166-2.01.267-2.85.066.013.2.004.2.004s.415-.025 1.025-.033c2.948.273 5.285.555 7.617.836l1.136-3.893s.034-.485.059-.726m-5.512 6.243s.02.045 0 0z"/><path fill="#A2A2A3" d="M48.676 14.84c-.074 1.322-.428 2.533-.857 4.004-2.332-.281-4.669-.563-7.41-.845.379-2.921 1.161-5.84 2.292-8.868.579 2.157.81 4.422 1.03 6.592 1.552-.33 3.108-.661 4.945-.883zM43.007 5.59a7.084 7.084 0 0 1-.375-2.606c.299.675.334 1.448.375 2.606z"/><path fill="#5F5245" d="M71.919 10.948c.507.257 1.014.515 1.986 1.058 1.632-.482 2.798-1.25 4.281-1.996 3.51 2.893 2.083 5.47-.533 8.013-1.447 1.014-2.553 2.005-3.871 2.755-.669-1.403-1.125-2.565-1.58-3.728-.021-.78-.042-1.56-.12-3.1-.093-1.508-.128-2.255-.163-3.002z"/><path fill="#B2B2B2" d="M62.14 13.826c.252-.458.504-.917.867-1.614-.513-1.254-.952-2.477-1.806-3.231-1.096-.968-2.525-1.559-3.811-2.312l.302-1.302c2.174-.124 4.347-.249 6.955-.382.934.536 1.433 1.08 1.934 2.143-1.734 3.054-2.673 5.553.335 7.873.015.169.029.337.025.976-.017.47-.11.918-.475.973-.854.145-1.344.235-2.057.114-.905-1.22-1.587-2.23-2.268-3.238z"/><path fill="#706C62" d="M71.908 17.036c.75 1.177 1.205 2.34 1.873 4.066.21.996.21 1.427-.008 2.125-.409 1.144-.6 2.023-1.084 2.907a29.042 29.042 0 0 1-1.771-.052c-.512-.05-.717-.07-.905-.454.344-1.781.67-3.197.999-5.013.008-1.468.013-2.534.017-3.601.196.003.391.006.88.022z"/><path fill="#9A9D9E" d="M67.173 14.746c-3.265-2.065-2.326-4.564-.417-7.402 3.595 1.962.749 4.648.417 7.402z"/><path fill="#7F8079" d="M70.69 16.957c.335 1.124.33 2.19-.083 3.654-2.195.053-3.982-.29-5.765-.83.003-.196.06-.585.369-.71.746-.808 1.183-1.492 1.62-2.176 0 0 .093-.448.157-.668 1.163.078 2.262.375 3.702.73z"/><path fill="#66605A" d="M72.026 3.362c.504-.647.986-.89 1.71-1.255.235.914.227 1.95.234 3.714.352 1.56.688 2.39 1.041 3.438.017.216.072.648.036.683a2.505 2.505 0 0 1-.114.098c-.977-2.092-1.953-4.183-2.907-6.678z"/><path fill="#6B5C4F" d="M77.87 9.988c-1.167.768-2.333 1.536-3.698 2.12.062-.647.321-1.109.67-1.82.09-.248.168-.312.392-.473.454-.37.633-.616.8-1.236.139-.779.24-1.22.672-1.645.99.039 1.651.063 2.312.393.014.712.027 1.12-.189 1.681-.472.43-.716.705-.96.98z"/><path fill="#706C62" d="M71.624 11.039c.33.656.365 1.403.422 2.521a6.288 6.288 0 0 1-.422-2.521z"/><path fill="#B2B2B2" d="M64.9 2.722c-.253.034-.32-.188-.122-.547.088-.094.133.333.123.547z"/><path fill="#42433B" d="M105.394 67.998c-.378-.739-.355-1.477.043-2.579.792-.38 1.208-.397 1.888-.382.723.267 1.183.502 1.642.737.006.496.012.991.016 1.86-1.065.37-2.127.367-3.59.364z"/><path fill="#2D2E26" d="M115.876 29.073c.883 1.019 1.765 2.038 2.914 2.978 2.154 3.04 4.042 6.159 6.089 9.59-.95 1.65-2.06 2.99-3.557 4.127-.388-.201-.382-.655-.508-.946-.987-.816-1.847-1.342-2.72-2.267-.036-1.465-.057-2.53-.17-3.89-1.682-.415-3.275-.537-4.878-.988-.036-.767-.063-1.205-.187-1.913-.646-1.447-1.193-2.625-1.775-4.039-.036-.235-.036-.712-.036-.712.3-.475.6-.951 1.314-1.717 1.447-.267 2.48-.245 3.514-.223z"/><path fill="#585A52" d="M120.94 45.113s-.006.454.01.68c.637 1.46 1.256 2.694 1.89 4.588-.273 1.018-.558 1.374-1.074 1.391-.741-.481-1.253-.624-2.021-.975-1.119-.204-1.979-.199-3.091-.22-.418.005-.583.038-.937-.068-.187-.138-.634-.265-.654-.611-.042-1.037-.065-1.73.114-2.738.407-1.264.614-2.211.813-3.544-.07-1.154-.133-1.924-.08-2.989.78-.753 1.443-1.21 2.106-1.668.02 1.066.042 2.131.13 3.923.975 1.228 1.885 1.73 2.794 2.23z"/><path fill="#B9C2C0" d="M121.996 52.111c.286-.356.57-.712.954-1.397.47-.35.843-.37 1.496-.409.47.967.663 1.951.791 3.313-.244.361-.425.345-.877.307-.755-.532-1.239-1.042-2.05-1.659-.327-.107-.314-.155-.314-.155z"/><path fill="#635D4F" d="M14.993 72.322c.166-.602.367-.847 1.02-.977.646.644.881 1.208 1.117 1.772-.127.279-.309.515-.727.839-.409.104-.636.077-1.207.01-.299-.468-.254-.895-.203-1.644z"/><path fill="#696968" d="M14.097 12.63c.011 1.14-.023 1.868-.061 3.304a40.214 40.214 0 0 1-.114 2.09c-.992-.01-1.983-.018-3.342-.016-.37-.78-.372-1.57-.014-2.848.703-1.393 1.046-2.3 1.398-3.63.016-2.124.021-3.824.027-5.524.203 0 .405-.001.913.002.587 2.073.868 4.142 1.193 6.622z"/><path fill="#737369" d="M36.01 17c.962.157 1.82.367 2.922.81.246.231.111.24-.15.425-.435.706-.608 1.227-1.095 1.652-.873-.973-1.433-1.85-1.994-2.727l.316-.16z"/><path fill="#6F6F65" d="M82.622 8.419c1.355-.195 2.71-.39 4.581-.226.584.574.65.788.742 1.351 1.039 2.099 2.053 3.848 3.042 5.963-.522 4.179-3.52 3.305-5.803 3.164 1.472-3.569 1.063-6.171-2.448-8.03-.15-.748-.275-1.168-.341-1.751a4.93 4.93 0 0 1 .227-.471z"/><path fill="#5F6058" d="M91.011 15.14c-1.013-1.748-2.027-3.497-2.814-5.68.295-.983.363-1.531.432-2.079.485-.49.97-.978 1.869-1.315.457.32.5.488.544.656.222 1.188.445 2.376.802 4.294.133 1.52.13 2.308.127 3.097 0 0 .008.484-.232.734-.24.251-.728.294-.728.294z"/><path fill="#5B4C3F" d="M82.514 8.069c.108.35-.06.656-.297.76-.554-.138-.87-.378-1.36-.876-.73-.481-1.285-.707-1.84-.932-.66-.024-1.32-.048-2.399-.324-.468-.41-.518-.57-.568-.73 1.055-.666 2.11-1.332 3.52-1.99.868.036 1.38.062 2.274.128.443 1.23.502 2.422.67 3.964z"/><path fill="#2D2E26" d="M91.36 6.704c-.362-.15-.405-.318-.6-.698-.052-.902.048-1.593.219-2.625.795.122 1.52.584 2.392 1.355-.465.856-1.079 1.403-2.011 1.968z"/><path fill="#494A42" d="M88.32 7.458c.24.471.172 1.019-.148 1.652-.318-.129-.385-.343-.56-.875.06-.446.23-.573.708-.777z"/><path fill="#8C8C89" d="M11.802 5.813c.183 1.893.178 3.593-.081 5.714-.576.394-.9.372-1.224.355a52.191 52.191 0 0 0-.466-2.52c-.104-.806-.102-1.26-.153-2.051.017-.747.087-1.158.193-1.88.538-.144 1.04.022 1.73.382z"/><path fill="#797977" d="M10.39 12.248c.43-.35.755-.327 1.321-.296-.1.909-.442 1.815-1.065 2.82-.307-.652-.336-1.406-.257-2.524z"/><path fill="#322C1E" d="M7.059 41.347c1.023-.034 2.107.276 3.54 1-.676 2.49-1.7 4.567-2.724 6.643-.268-.48-.535-.96-.843-1.718.003-2.045.045-3.813.027-5.925z"/><path fill="#4B4537" d="M7.94 49.263c.96-2.35 1.983-4.426 2.991-6.85.006-.53.026-.715.31-.92 1.987.89 3.714 1.8 5.525 2.996.128.477.17.67.225 1.217.025 1.296.038 2.238-.312 3.224-3.125 1.627-5.887 3.208-8.648 4.511-.022-.648-.045-1.018-.068-1.388.013-.84.027-1.679-.024-2.79z"/><path fill="#635D4F" d="M7.663 51.976c.323.447.346.817.363 1.863.004 1.452.014 2.228.024 3.004l-.074.228c-.023.077-.495.008-.734.002-.535-.356-.832-.708-1.279-1.375-.343-1.068-.537-1.822-.82-2.861.68-.503 1.45-.72 2.52-.86z"/><path fill="#8C7F76" d="M75.697 5.962c.403.165.453.325.59.72-.013.677-.114 1.118-.504 1.925-.455.388-.622.411-.788.435-.337-.83-.673-1.66-1.035-2.833.444-.311.914-.282 1.737-.247z"/><path fill="#3A3B33" d="M120.843 5.163c-.3 4.151-.834 8.341-1.912 12.528-1.084-1.667-1.625-3.33-2.163-5.227.01-.542.008-.852.04-1.58.12-1.53.198-2.643.485-4.018.417-1.123.625-1.983.834-2.843 0 0 .449.096.673.147.753.378 1.28.704 2.043.993z"/><path fill="#85867E" d="M111.898 5.93c-.605-.463-1.21-.925-1.886-1.689.128-.558.344-.802.751-1.203 1.338.09 2.501.352 3.963 1.092.287.916.275 1.354-.061 1.765-.542-.039-.76-.05-1.05-.065-.074-.002-.222-.01-.597-.005-.624.038-.872.072-1.12.105z"/><path fill="#717169" d="M114.99 5.923c.011-.439.023-.877.063-1.645.787-.307 1.546-.285 2.69-.26.175.865-.033 1.725-.752 2.766-1.008-.167-1.505-.514-2.002-.861z"/><path fill="#56574F" d="M123.019 4.694c-.442.292-.887.346-1.67.38-.336-.218-.337-.414-.338-.904.44-.278.88-.262 1.65-.217.329.03.353.504.358.741z"/><path fill="#635D4F" d="M4.626 55.524c.063.035-.014.399-.014.399s-.253-.12-.22-.258c.034-.137.172-.176.234-.141z"/><path fill="#383931" d="M126.155 11.987c-.64.022-1.056.024-1.782.036.144-1.51.598-3.029 1.29-4.789.266-.066.293.107.326.545.227.795.45 1.326.887 2.056.161.619.106 1.039.004 1.772-.047.313-.498.36-.725.38z"/><path fill="#342E20" d="M2.706 56.782c.082.265-.106.576-.504 1.06-.22-.012-.23-.198-.275-.662.147-.303.328-.328.779-.398z"/><path fill="#3C392E" d="M117.925 38.665c-.572.752-1.235 1.21-2.377 1.991-4.376 1.218-4.754 2.88-1.569 5.623-.005.509-.01.712-.202 1.167-.735 1.415-1.283 2.578-2.157 3.68-.737 1.255-1.148 2.57-1.56 3.886-.12.447-.24.894-.756 1.667-.926.32-1.453.315-2.08-.086-.481-2.791-.863-5.187-1.239-7.983.479-1.961.843-4.823 1.443-4.874 3.659-.306 2.213-2.935 2.651-4.938.077-.209.23-.626.572-.656 1.03-.065 1.718-.1 2.406-.135 1.592.121 3.185.243 4.868.658z"/><path fill="#36372F" d="M107.323 56.989c.528.005 1.055.01 1.847.01.405 2.702.547 5.408.703 8.566.013.453-.44.316-.673.262-.692-.288-1.152-.523-1.884-1.234-.269-2.84-.265-5.205-.193-7.57.068 0 .2-.034.2-.034z"/><path fill="#969F9C" d="M116.905 50.604c.861-.006 1.721-.011 2.835.592.216 1.673.179 2.737-.083 3.8-.225 0-.674.03-.674.03-.44 0-.88-.001-1.65-.388-.361-1.602-.394-2.818-.428-4.034z"/><path fill="#A7B0AD" d="M116.654 50.577c.285 1.243.318 2.46.35 4.049-.772.37-1.542.368-2.655-.014-.299-1.11-.256-1.84-.033-2.757.46-.39.737-.595 1.116-.861.101-.062.473-.346.473-.346.166-.033.331-.066.749-.071z"/><path fill="#A6A7A0" d="M110.392 55.02c.08-1.323.49-2.639 1.182-3.684.28.27.328.697.333 1.065.052 1.103.097 1.837.143 2.572-.442.018-.884.036-1.658.047z"/><path fill="#6C716B" d="M112.362 54.993c-.358-.755-.403-1.49-.082-2.6.863-.37 1.36-.36 1.856-.352-.043.73-.086 1.462-.171 2.556-.459.38-.875.398-1.603.396z"/><path fill="#A7B0AD" d="M119.06 55.307c-.077-.281.372-.31.898-.319.92-.035 1.314-.063 1.71-.091.091.154.183.31.39.708-.897.157-1.908.07-2.997-.298z"/><path fill="#BAC3BF" d="M121.715 54.442c-.443.483-.837.51-1.533.547-.263-1.056-.226-2.12-.185-3.584.516-.257 1.028-.114 1.769.367.23.34.217.387.206.384-.077.609-.142 1.22-.257 2.286z"/><path fill="#606967" d="M81.511 72.661c-.356-.57-.383-1.096-.11-1.927 1.333-.312 2.365-.32 3.462.03.098.599.131.839.164 1.08-1.062.287-2.125.574-3.516.817z"/><path fill="#4D5653" d="M85.391 71.899c-.397-.296-.43-.536-.184-1.201 1.437-.449 2.595-.472 3.778-.253.025.242.11.721.11.721-1.113.263-2.226.526-3.704.733z"/><path fill="#606967" d="M89.466 71.135c-.371.031-.456-.448-.071-.766 1.773-.308 3.162-.297 4.55-.286 0 0 .014-.045-.008-.035-1.382.359-2.74.707-4.47 1.087z"/><path fill="#63543B" d="M65.977 66.03c.005.713.01 1.425-.365 2.52-1.111.376-1.843.372-2.642.054-1.04-1.418-2.013-2.521-2.92-3.96.708-1.788 1.35-3.242 2.328-4.793 2.44-1.017 4.544-1.936 6.953-2.792 1.096.71 1.888 1.36 2.675 2.326-.003.745-.002 1.171-.39 1.601-4.044-.3-5.545 1.638-5.639 5.044z"/><path fill="#7A6F5D" d="M63.037 68.918c.732.004 1.464.008 2.56-.014.408 1.091.451 2.208.138 3.655-1.482.035-2.608-.26-3.733-.555-1.439.31-2.877.62-4.66.539-.13-4.828 3.365-3.136 5.695-3.625z"/><path fill="#776C53" d="M66.388 66.02c-.317-3.396 1.184-5.335 5.231-4.688.396.802.4 1.262.404 2.053.004.773.008 1.214-.17 1.823-.41.411-.666.621-.948.798a823.16 823.16 0 0 0-4.517.014z"/><path fill="#CBCFC5" d="M70.992 66.414c.195-.585.45-.795 1.27-1.181 1.957-.047 3.32.05 4.563.42-1.155.95-2.189 1.629-3.38 2.41l1.643 2.037s-.083.449-.086.677c-.73.272-1.455.315-2.535.443-.508-.016-.661-.118-1.09-.23-.282-1.398-.29-2.782-.385-4.576z"/><path fill="#857E77" d="M62.033 72.373c1.094-.074 2.22.22 3.7.48.375.419.394.873.376 1.661-1.373-.367-2.71-1.07-4.076-2.141z"/><path fill="#6A5D49" d="M62.97 68.604c-2.263.803-5.759-.89-6 3.937-.024.39-.496.44-.733.458-.53-.467-.824-.953-1.167-1.725-1.98-1.374-3.91-2.462-5.734-4.134 1.308-1.471 2.51-2.358 3.931-3.183.22.061.663.18.668.542.328 1.313.65 2.263.99 3.261l5.06-2.78c.972 1.103 1.945 2.206 2.985 3.624z"/><path fill="#BAC3BF" d="M75.518 70.105c-.935-.63-1.44-1.256-2.073-2.041 1.191-.782 2.225-1.46 3.615-2.494.356-.356.83-.51 1.248-.495 1.238-.138 2.056-.29 3.229-.435 1.3-.046 2.244-.1 3.188-.154 2.267.608 4.59 1.86 6.789 1.67 3.25-.278 2.696 1.386 2.456 3.587-1.413.33-2.802.318-4.6.384-1.568.1-2.726.122-4.228.213-1.376.074-2.408.082-3.754.13-2.023-.094-3.732-.227-5.87-.365z"/><path fill="#52534B" d="M116.766 12.697c.54 1.663 1.081 3.327 1.894 5.141 1.159 1.314 2.046 2.477 3.071 3.933-.685.486-1.508.68-2.891 1.007-2.075-.758-3.59-1.648-5.583-2.82l-2.38 5.13c-.968-1.126-1.936-2.252-2.943-3.753 1.187-3.826 2.413-7.276 4.162-11.018.702-.267.882-.242 1.034.149 1.193.988 2.414 1.609 3.636 2.23z"/><path fill="#3B3C34" d="M113.159 10.1c-.18-.025-.361-.05-.813-.087-.326-.776-.38-1.54-.077-2.782.591-.544.826-.611 1.207-.62.146.06.463.086.48.483.016 1.19.015 1.985-.184 2.852-.198.073-.613.154-.613.154z"/><path fill="#51524A" d="M113.33 6.552c-.235.068-.47.135-1.059.296-.359-.075-.363-.243-.37-.665.245-.286.493-.32 1.073-.176.332.177.356.545.356.545z"/><path fill="#5F5F56" d="M86.011 29.014c2.588 4.677 6.65 2.945 10.765 2.158.952 2.173 1.578 4.591 2.083 7.657-.718 1.39-1.316 2.131-2.338 2.936-3.15.466-5.877.87-8.624.985-.314-.76-.606-1.233-1.043-2.035-1.445-2.17-2.746-4.01-4-6.187.425-2.07.803-3.802 1.51-5.53.769.01 1.208.013 1.647.016z"/><path fill="#4B4638" d="M96.946 41.702a81.487 81.487 0 0 0 1.935-2.473c1.835.867 3.477 2.26 4.14-1.259.347-1.837 1.238-3.57 2.264-5.82.796-.586 1.21-.702 1.748-.474.435.993.746 1.641 1.06 2.58.282.773.56 1.255.853 2.075.362 1.116.71 1.896 1.057 2.676-.362 1.794 1.084 4.423-2.575 4.73-.6.05-.964 2.912-1.78 4.869-.795.387-1.246.38-1.919.155-1.4-.065-2.58.088-4.128.243-1.113 0-1.856 0-2.599-.378-.002-1.127-.005-1.878.106-2.736.265-.418.19-.678-.11-1.296-.014-1.237-.033-2.064-.052-2.892m10.556-1.235s.02.048 0 0z"/><path fill="#93948C" d="M106.91 31.333c-.414.115-.829.231-1.547.451-.686-.637-1.067-1.38-1.507-2.444.748-.372 1.555-.422 2.748-.136.359.933.332 1.53.306 2.129z"/><path fill="#5B5445" d="M86.246 28.742c-.674.269-1.113.265-2.186.261-1.036.032-1.44.066-2-.152-.485-.447-.814-.643-1.109-.837.034.002.015.067.048-.249-.346-1.049-.724-1.782-1.084-2.933.031-1.525.042-2.633.334-3.76.466-.033.652-.05 1.112.065 1.036.38 1.8.63 2.827 1.118 1.423.427 2.583.617 3.743.806-.484 1.803-.967 3.606-1.685 5.681z"/><path fill="#807A6D" d="M88.205 22.93c-1.434-.058-2.594-.248-3.951-.99.133-1.34.464-2.126.796-2.912 2.417-.216 5.415.658 5.937-3.521.024-.366.512-.409.756-.418.883.45 1.52.908 2.249 1.667-.219 1.081-.527 1.861-.802 2.97-.699.77-1.432 1.21-2.331 1.946-.904.572-1.642.849-2.654 1.257z"/><path fill="#5B5445" d="M93.018 24.22c.17-.189.371-.167.87-.082.055.365-.187.667-.43.97-.136-.226-.273-.451-.44-.888z"/><path fill="#3E3F37" d="M110.993 25.332c.622-1.835 1.36-3.425 2.264-5.373 1.992 1.17 3.508 2.061 5.35 3.045.609 1.324.893 2.555 1.168 3.748-1.33.625-2.508 1.179-3.793 2.026-1.14.273-2.173.25-3.596.225-.685-1.144-.98-2.285-1.393-3.67z"/><path fill="#737369" d="M107.033 31.676c-.097-.941-.07-1.54-.025-2.443 1.159.337 2.3.98 3.74 1.702.3.078.3.555.246 1.075-.383 1.002-.71 1.484-1.35 1.966-.725-.003-1.139-.006-1.553-.01-.312-.649-.623-1.297-1.058-2.29z"/><path fill="#42433B" d="M92.287 14.044c-.313-.72-.31-1.509-.298-2.69.749-.346 1.488-.298 2.595-.21.368.04.362.453.377.66-.776.861-1.567 1.516-2.674 2.24z"/><path fill="#322B24" d="M24.37 68.05c.42-5.173-3.72-4.805-7.033-5.902-.158-.71.034-1.268.79-2.067 1.311-1.51 2.057-2.778 3.23-4.054 1.561-.038 2.696-.067 4.025-.095.194.001.581.026.8.236 1.095.065 1.973-.08 3.16-.074 1.73 1.386 3.152 2.62 4.575 3.856 1.066 4.436-.004 5.945-4.306 6.352-.279.026-.435 1.348-.66 2.366-1.417.016-2.822-.268-4.582-.617m9.121-6.532s-.02-.054 0 0z"/><path fill="#342E20" d="M41.089 67.18c-.316.43-.632.86-1.087 1.518-1.123-3.492-2.107-7.21-2.696-11.338 1.533-1.018 2.671-1.628 4.167-2.281 1.74-.425 3.12-.805 4.507-.834a59.1 59.1 0 0 1 .007 2.13c-.816 1.98-1.643 3.582-2.404 5.214-.862 1.85-1.666 3.726-2.494 5.59z"/><path fill="#79726B" d="M33.943 59.597c-1.449-.882-2.87-2.117-4.804-3.706-1.058-.509-1.606-.664-2.363-1.07-1.037-.472-1.866-.695-2.716-1.131-.023-.214-.056-.643.206-.665.432-.06.603-.099 1.17-.117 1.453.047 2.51.074 3.815.304 1.736.905 3.222 1.607 4.79 2.717.149.676.215.945.282 1.214-.118.7-.236 1.4-.38 2.454z"/><path fill="#595345" d="M34.66 57.107c-.404-.233-.47-.502-.616-1.366-.08-.596-.035-.974.37-.886 2.037.092 3.67.096 5.652.14.583.068.816.098 1.05.128-1.139.61-2.277 1.22-3.736 1.893-1.007.061-1.694.058-2.72.091zM17.45 73.068c-.556-.515-.791-1.079-1.242-1.86.407-2.015 1.028-3.813 1.753-5.895.77.805 1.438 1.894 2.15 3.346.013 1.098-.018 1.832-.033 2.934-.76.72-1.534 1.073-2.628 1.475z"/><path fill="#6E695B" d="M16.681 44.205c-1.726-.911-3.453-1.823-5.416-2.99-.206-.67-.176-1.086.197-1.839.754-.36 1.166-.382 1.882-.446.693-.169 1.083-.295 1.525-.285.053.137.148.414.168.617.196.386.372.568.548.75.09-.295.18-.59.482-.896.214-.011.64-.034.721.31.118.812.156 1.28.221 2.13-.091 1.137-.21 1.893-.328 2.65z"/><path fill="#5E584B" d="M13.04 38.971c-.412.023-.824.046-1.541.094-.384-1.725-.462-3.477-.59-5.664-.05-.435.12-.442.483-.438.735-.014 1.107-.032 1.522.384.07 2.164.098 3.894.126 5.624z"/><path fill="#74756D" d="M12.872 32.913c-.373.018-.745.036-1.396.063-.328-.727-.379-1.463-.384-2.566.455-.377.863-.387 1.682-.37.412.029.624.053.548.404a178.04 178.04 0 0 0-.45 2.469z"/><path fill="#9C9B9F" d="M13.957 18.387c.001-.824.038-1.285.116-2.09 1.751-.045 3.46.253 5.537.614.533.068.7.075 1.096.486-.077 2.805-.383 5.206-1.005 7.633-.526.024-.737.022-1.292.025-1.166.323-1.988.64-2.867.95-.056-.008-.155-.063-.333-.003-.178.06-.549.12-.549.12-.208-1.454-.417-2.908-.985-4.524-.36-.162-.423-.143-.388-.145.258-.903.482-1.803.67-3.066z"/><path fill="#56574F" d="M13.865 26.329c.141-.318.47-.262.633-.234.162.027.533-.032.495.28-.194 1.432-.35 2.553-.684 3.737-.427.085-.672.058-.91-.019 0 0-.213-.024-.318-.048.145-1.15.394-2.274.784-3.716z"/><path fill="#BDBDBD" d="M95.24 55.87a635.582 635.582 0 0 0-10.904-.252c-1.01-.283-1.562-.619-2.012-1.189.064-.4.027-.567-.005-.896.026-.371.035-.581.077-.958.043-.167-.252-.345.134-.223 2.098-.33 3.81-.783 5.796-.968 1.553.27 2.83.274 4.44.305 1.236.566 2.14 1.104 2.838 2.034-.258.977-.311 1.562-.365 2.147z"/><path fill="#343434" d="M84.736 64.328c-.955.212-1.9.266-3.158.187-.313-.132-.413-.375-.45-.72-.07-.802-.106-1.26-.094-2.127.166-.945.284-1.482.746-1.992 1.251.162 2.159.297 3.125.818.075 1.425.092 2.465.109 3.505 0 0-.268.17-.278.33z"/><path fill="#211510" d="M82.221 54.664c.553.335 1.105.67 1.947 1.154.28.404.272.66-.075 1.165-1.187.316-2.036.383-3.264.311-1.176-.162-1.973-.185-2.969-.38-.374-.653-.55-1.133-.294-1.638 1.84-.22 3.248-.416 4.655-.612z"/><path fill="#AFB0A9" d="M100.091 54.748c-.013.504-.026 1.009-.065 1.89-.855.044-1.683-.291-2.8-1.065-.357-1.19-.425-1.943-.408-2.895.086-.2.215-.616.581-.642 1.096-.01 1.827.005 2.626.356.067 1.01.066 1.683.066 2.356z"/><path fill="#BAC3BF" d="M85.332 63.922c-.335-.963-.352-2.003-.35-3.704.05-.851.08-1.04.112-1.228 3.826 1.201 2.999 2.935.238 4.932z"/><path fill="#737373" d="M85.007 58.806c.056.372.024.56-.084 1.026-.984.14-1.892.006-3.202-.396-.403-.267-.54-.744-.52-.953.039-.49.034-.77.006-1.05.85-.067 1.699-.134 2.955-.073.524.506.641.884.845 1.446zM96.732 52.878c.069.752.137 1.504.165 2.633-.4.384-.76.39-1.389.378-.215-.604-.162-1.189.167-2.271.52-.633.78-.713 1.057-.74z"/><path fill="#2F2E25" d="M100.482 54.807c-.39-.732-.39-1.406-.422-2.798-.052-1.48-.07-2.244-.09-3.007 1.18-.153 2.359-.306 3.554-.01.158 1.639.299 2.829.436 4.369.015.815.035 1.28.055 1.746a164.21 164.21 0 0 1-3.533-.3z"/><path fill="#4B4C44" d="M103.964 53.011c-.141-1.19-.282-2.38-.218-3.8.656-.225 1.107-.218 1.896-.206.72 2.4 1.1 4.797 1.581 7.588.1.396-.032.43-.44.416-.858-.013-1.31-.013-1.762-.014-.172-.259-.273-.543-.242-1.441-.231-1.24-.523-1.892-.815-2.543z"/><path fill="#5C5D56" d="M104.969 57.44c.504-.444.956-.444 1.747-.43.335 2.378.331 4.742.337 7.55-.408.462-.824.478-1.551.494-.403-2.39-.495-4.779-.533-7.613z"/><path fill="#414138" d="M103.96 53.36c.296.302.588.953.889 1.976-.163.316-.334.259-.67-.013-.184-.682-.204-1.147-.22-1.962z"/><path fill="#3C3628" d="M41.423 67.18c.494-1.865 1.298-3.742 2.16-5.59a61.903 61.903 0 0 1 2.703-5.15c1.114.318 1.912.937 2.712 1.808.005.42.007.589.005 1.15-.341 2.417-.677 4.44-1.014 6.464-2.077.439-4.154.878-6.566 1.317z"/><path fill="#51422E" d="M48.11 66.098c.216-2.26.552-4.283 1.212-6.615 1.457 1.265 2.59 2.839 3.725 4.413a115.328 115.328 0 0 0-3.835 2.92c-.48.012-.73-.235-1.102-.718z"/><path fill="#756F64" d="M8.422 56.868c-.382-.8-.392-1.577-.397-2.75 2.767-1.98 5.529-3.561 8.882-5.152a17.25 17.25 0 0 1 1.309.02c.428.02.6.023.777.02.007-.006-.004.01.087.328 1.014.784 1.937 1.25 2.89 1.695.029-.02-.02.033-.014.372-.005 1.015-.016 1.692-.33 2.462-.712.743-1.122 1.394-1.742 2.26-.765.424-1.32.635-1.874.845-3.037-4.225-6.14-.37-9.588-.1z"/><path fill="#544D47" d="M18.007 57.338c.557-.58 1.112-.79 2.086-1.186.42-.185.837-.117.837-.117-.746 1.268-1.492 2.537-2.584 3.842-.345-.7-.344-1.435-.34-2.54z"/><path fill="#44453D" d="M35.506 17.152c.748.885 1.308 1.762 2.301 3.054.558.604.683.794.808.984 0 0 .012.227-.376.514-.704.676-1.02 1.065-1.6 1.537-.788.287-1.313.49-2.041.707-.203.012-.61.045-.646-.174a65.959 65.959 0 0 1-.105-.656c.372-1.725.744-3.451 1.106-5.556-.009-.38.365-.419.553-.41z"/><path fill="#B3B0B6" d="M20.017 25.003c.306-2.4.612-4.8.94-7.6 1.073-1.346 2.124-2.292 3.49-3.23.773.34 1.232.67 1.88 1.087.201.33.215.576.082 1.643.07 1.419.288 2.016.505 2.613-.306.013-.611.027-1.408.463-1.153 1.948-1.815 3.475-2.725 4.913-1.087-.023-1.925.044-2.764.111z"/><path fill="#2A2C20" d="M33.529 23.023c.318.095.386.533.315.975-.256.726-.497.951-1.142 1.096-.815.015-1.28.05-1.982-.174-.538-.898-.84-1.537-1.141-2.176 0 0 .186-.386.305-.565 1.188.13 2.257.44 3.645.844z"/><path fill="#3D3E37" d="M27.032 23.037s.382.23.64.697c.26 3.478.26 6.49.26 9.88 1.785-1.238 3.464-2.402 5.462-3.613.53-.082.742-.117 1.16.099.44 1.084.673 1.916.6 2.806-.603.735-.902 1.411-1.213 2.455.321 1.51.654 2.652 1.02 4.133.795 1.454 1.556 2.57 2.315 3.955.016.63.032.99-.221 1.591-1.16.5-2.051.758-3.012.68-.619-3.335-2.602-3.498-5.047-3.196-1.658-1.081-3.272-1.798-4.962-2.802-.276-.832-.479-1.377-.715-2.252-.211-.733-.389-1.136-.365-1.829.25-1.627.3-2.964.572-4.618.517-2.175.812-4.032 1.247-6.154.847-.787 1.553-1.31 2.259-1.832z"/><path fill="#525349" d="m33.076 30.047-5.144 3.567c0-3.39 0-6.402-.048-9.808.335-.56.718-.726 1.398-.977.598.554.9 1.193 1.534 2.367.952.965 1.572 1.396 2.19 2.072 0 .246-.004.737.002 1.077.026.794.047 1.248.068 1.702z"/><path fill="#9F9E9C" d="M26.968 22.598c-.642.962-1.348 1.484-2.582 2.23-.784.193-1.04.161-1.314.131a.12.12 0 0 0-.043.022c.662-1.527 1.324-3.054 2.128-4.704.677.545 1.212 1.213 1.811 2.321z"/><path fill="#23241C" d="M27.225 19.406c-.528-.487-.746-1.084-.76-2.138.693-.384 1.183-.31 2.069.023.396.26.464.706.464.706-.487.433-.974.866-1.773 1.409z"/><path fill="#3B3C31" d="M29.24 17.96c-.242.037-.31-.41-.336-.633.152-.238.332-.252.78-.273.27-.007.264.351.263.528-.001.177-.464.34-.707.377z"/><path fill="#76796C" d="M52.146 24.313c-.621-2.9-1.242-5.8-2.01-9.014 2.662.315 5.472.943 8.582 2.087.292 2.214.284 3.911-.005 5.657-.758.341-1.234.634-2.16.923a84.44 84.44 0 0 0-4.172.485c-.102.026-.235-.138-.235-.138z"/><path fill="#6A6A5D" d="M58.994 22.995c.008-1.698.016-3.395.035-5.514.83-1.431 1.65-2.441 2.79-3.553 1.003.907 1.685 1.916 2.63 3.454.326.958.39 1.386.453 1.814 0 0-.057.389-.243.845-.347 1.291-.508 2.126-1.083 2.96-1.798.004-3.18.008-4.568.007l-.014-.013z"/><path fill="#212017" d="M43.99 23.17c1.422.346 2.843.693 4.589 1.568.216 1.324.108 2.12-.335 2.904-.976-.187-1.618-.364-2.462-.771-.79-.4-1.378-.567-2.075-.932-.333-.403-.539-.624-.611-1.105.375-.717.635-1.19.894-1.664z"/><path fill="#33291D" d="M48.579 27.653c.108-.795.216-1.59.346-2.788.82-.425 1.62-.45 2.821-.513.4-.039.533.125.716.36.274.597.365.957.165 1.395-.74.696-1.189 1.314-2.063 1.917-.993-.013-1.56-.01-2.175-.131-.047-.123.19-.24.19-.24z"/><path fill="#2F3028" d="M43.782 22.918c-.051.725-.311 1.199-.93 1.97-.36.3-.84.433-1.091.316-.427-.171-.604-.224-.93-.382-.148-.105-.5-.197-.735-.362-.912-.51-1.59-.856-2.017-1.516.397-.535.545-.758.693-.98 1.6.234 3.2.469 5.01.954z"/><path fill="#5F6058" d="M38.71 20.887c-.22.113-.345-.077-.59-.585.054-.84.227-1.36.596-2.08.16.655.124 1.509-.006 2.665z"/><path fill="#A2A2A3" d="M43.512 20.49c.01.023-.01-.022 0 0z"/><path fill="#2F3028" d="M36.903 23.158c.316-.389.632-.778 1.224-1.433.277-.265.553-.072.599.083-.102.378-.25.6-.88 1.12-.48.297-.943.23-.943.23z"/><path fill="#504636" d="M81.088 21.006c-.187.016-.373.033-1.09.037-.698-.024-.866-.034-1.042-.372-.327-1.108-.644-1.89-.962-2.67 2.275-2.522 3.702-5.098.192-7.99-.073-.298.171-.572.892-1.079.969-.395 1.46-.559 1.952-.722.316.24.633.481 1.127.783.304.48.43.9.398 1.975-.595 3.783-1.031 6.91-1.467 10.038z"/><path fill="#746753" d="M77.653 18.023c.659.759.976 1.54 1.028 2.692-.731.653-1.197.936-1.981 1.263-1.116.358-1.912.67-2.709.983 0-.432 0-.863.002-1.619 1.107-1.314 2.213-2.305 3.66-3.319z"/><path fill="#9A9D9E" d="M65.21 19.072c-.372-.304-.435-.732-.538-1.478.45-.41.94-.5 1.794-.644-.072.629-.509 1.313-1.255 2.122z"/><path fill="#74776F" d="M63.99 23.002c.161-.835.322-1.67.666-2.765 1.97.084 3.756.427 5.947.774.08 1.42-.246 2.836-.952 4.634-1.804 1.377-3.228 2.373-4.894 3.341-.24-.028-.716-.123-.718-.455l-.049-5.529z"/><path fill="#6A665B" d="M64.998 29.014c1.425-.996 2.849-1.992 4.635-3.004.568.002.773.022 1.264.43.202 1.098.118 1.808-.301 2.575-1.775.652-3.214 1.247-4.784 1.615-.36-.69-.587-1.153-.814-1.616z"/><path fill="#564D3B" d="M73.773 23.227c1.015-.579 1.811-.891 2.921-.86.316 1.12.319 1.894.27 2.969-.076.502-.1.703-.19 1.125-.067.22-.23.65-.26.738-.028.088-.208.134-.319-.218-.16-.592-.21-.83-.458-1.263-1.039.087-1.88.369-2.753.594-.033-.056-.003-.183-.003-.183.192-.879.383-1.758.792-2.902z"/><path fill="#262012" d="M70.931 28.959c.084-.71.168-1.42.273-2.488.411-.349.801-.34 1.485-.337.292-.005.262.122.442.364.65.68 1.12 1.116 1.406 1.767-.96.757-1.735 1.301-2.66 1.623-.414-.457-.68-.693-.946-.93z"/><path fill="#5F5245" d="M75.011 9.259c.15-.24.317-.264.734-.315.122.255-.057.5-.475.836-.187.127-.242-.305-.259-.521z"/><path fill="#72675E" d="M80.856 7.953c-.318.42-.81.584-1.55.824-.261-.33-.274-.738-.288-1.45.554-.08 1.11.145 1.838.626z"/><path fill="#4A4436" d="M109.956 33.975c.327-.481.655-.963 1.073-1.729.637.893 1.184 2.071 1.46 3.506-1.012.256-1.754.255-2.517.267-.022.011-.066.035-.042-.311.024-.809.025-1.27.026-1.733z"/><path fill="#5D5749" d="M109.994 36.007c.741 0 1.483.001 2.594.014.395.45.422.889.458 1.656-.677.365-1.365.4-2.479.108-.475-.81-.524-1.294-.573-1.778z"/><path fill="#3B3C34" d="M120.814 44.822c-.783-.21-1.693-.712-2.654-1.54.807.198 1.667.724 2.654 1.54z"/><path fill="#454339" d="M113.98 45.974c-3.186-2.438-2.808-4.1 1.451-5.023.426.74.49 1.51.26 2.738-.765 1.066-1.238 1.676-1.712 2.285z"/><path fill="#62645D" d="M114.316 51.855c-.676.178-1.173.169-2.041.17-.373.008-.421-.42-.375-.629.594-1.372 1.142-2.535 2.132-3.885.609-.137.777-.085.944-.034.022.692.045 1.384.138 2.627.072.551.217.952.217.952-.278.204-.556.408-1.015.799z"/><path fill="#34352D" d="M115.177 47.16c-.368.266-.536.214-.958.099-.25-.268-.245-.471-.24-.98.474-.914.947-1.524 1.72-2.205.092.875-.115 1.822-.522 3.086z"/><path fill="#969F9C" d="M115.432 50.994c-.1.062-.246-.339-.297-.545-.052-.205.395-.078.582.06.188.139-.184.423-.285.485z"/><path fill="#5F5D52" d="M81.36 21.137c.164-3.258.6-6.386 1.218-9.84 3.669 1.203 4.078 3.805 2.606 7.374-.466 1.143-.797 1.93-1.193 3.03-.83.066-1.594-.184-2.63-.564z"/><path fill="#35352E" d="M24.109 40.01c1.615.716 3.23 1.433 4.502 2.55-3.531.316-4.152 2.463-4.121 4.958.022 1.792.356 3.58.55 5.37-.17.038-.342.077-.91-.123-.993-.727-1.587-1.215-2.18-1.703 0 0 .049-.052-.117-.32-1.06-.755-1.952-1.24-2.844-1.725 0 0 .011-.017-.088-.16-.38-.059-.66.026-.942.11 0 0-.461-.01-.689-.046-.24-.977-.254-1.92.1-3.303 1.464-1.493 2.56-2.543 3.955-3.697 1.126-.707 1.955-1.31 2.784-1.912z"/><path fill="#82837A" d="M21.027 42.025c-1.097 1.05-2.193 2.1-3.669 3.239-.422-.105-.464-.298-.592-.775.033-1.04.152-1.796.714-2.842.752-.205 1.06-.119 1.466-.174.42-.254.74-.367 1.281-.189.414.442.607.592.8.741z"/><path fill="#51524A" d="M113.97 9.873c.001-.794.002-1.589-.07-2.996a6.267 6.267 0 0 0-.211-1.045c.217.012.434.024.976.063.821.375 1.318.722 2.117 1.152.224 1.194.146 2.306-.267 3.723-1.072-.096-1.808-.497-2.544-.897z"/><path fill="#9C9D95" d="M113.772 9.946c.935.327 1.671.728 2.7 1.242.304.424.307.734.296 1.276a10.726 10.726 0 0 1-3.638-1.998c.029-.366.444-.447.642-.52z"/><path fill="#717169" d="M113.615 5.83c.074.002.211.434.267.65.057.217-.26.19-.406.131-.146-.059-.17-.427-.126-.61.043-.181.191-.173.265-.17z"/><path fill="#797365" d="M109.972 36.019c.071.472.12.955.253 1.796.083.357-.07.774-.146.983-.423-.57-.77-1.35-.889-2.452.23-.322.716-.292.716-.292l.066-.035z"/><path fill="#77684F" d="M69.026 56.996c-2.104.92-4.208 1.838-6.677 2.513-1.058-.997-1.75-1.75-2.434-2.864-.285-1.763-.578-3.165-.52-4.593 1.417-.68 2.483-1.335 3.905-1.993 1.184-.365 2.012-.726 3.087-1.072.248.015.744.043.931.277 1.338 1.042 2.488 1.85 3.846 2.907 1.09 1.183 1.973 2.115 2.698 3.272-.424.475-.692.726-1.305.86-1.407.154-2.47.423-3.531.693z"/><path fill="#5A4A34" d="M59.907 57.006c.692.753 1.384 1.506 2.106 2.6-.613 1.796-1.255 3.25-1.963 5.038-1.624 1.192-3.183 2.05-5.125 3.116-.34-.998-.662-1.948-.667-3.445 3.584-1.735 4.046-4.324 4.024-7.324.76 0 1.192.008 1.625.015z"/><path fill="#36280F" d="M69.33 57.059c.758-.333 1.82-.602 3.254-.445.382 1.062.391 1.697.157 2.362l-.73.09c-.792-.648-1.584-1.296-2.68-2.007z"/><path fill="#645248" d="M72.006 59.385c.004-.318.492-.379.945-.202.708.895.963 1.612.953 2.529-.803.58-1.342.96-1.88 1.342l-.017-1.726c-.003-.772-.004-1.198 0-1.943z"/><path fill="#A39686" d="M72.023 63.385c.54-.712 1.078-1.094 2.144-1.568 1.342-.92 2.156-1.748 3.212-2.564.722-.023 1.201-.057 1.705.074.024.165.127.483.026.668-.158.464-.166.745-.123 1.384-.037 1.065-.08 1.773-.334 2.636-.397.452-.58.749-.764 1.046 0 0-.473.153-.708.236-1.599-.014-2.962-.11-4.735-.232-.415-.466-.419-.907-.423-1.68z"/><path fill="#43341F" d="M57.956 56.998c.348 2.993-.114 5.582-3.703 6.955-.323.183-.765.065-.986.004-1.354-1.635-2.488-3.21-3.941-4.867-.321-.253-.323-.422-.01-.858.63-1.12.95-1.968 1.259-2.822.673-1.866 1.34-3.734 2.009-5.601.803.394 1.605.788 2.393 1.563-.503 2.977-1.847 6.063 2.979 5.626z"/><path fill="#6A665B" d="M78.308 65.075c-.235-.311-.052-.608.728-1.009 1.107-.044 1.618.015 2.129.074 0 0 .1.243.058.368-.86.277-1.677.429-2.915.567z"/><path fill="#36372F" d="M96.521 41.765c.444.765.463 1.592.481 2.826 0 .407.005.397-.118.504-.289.434-.207.703.12.91a.037.037 0 0 0-.01-.008l.009 2.63c0 .376.01.389-.465.39-2.032.2-3.59.401-5.448.593-.913-.018-1.525-.027-2.342-.211-.378-.223-.552-.27-.745-.703-.338-2.134-.656-3.884-.974-5.65 0-.016.034-.017.247-.016.214 0 .641.007.641.007l8.604-1.272z"/><path fill="#322617" d="M76.306 27.333s.18-.046.477-.028c.488.006.679-.006 1.183.054.528.102.74.132 1.18.36.758.254 1.29.308 1.82.362 0 0 .02-.065-.175.196.346.449.886.637 1.427.825.403-.033.806-.067 1.513-.104-.074 1.728-.452 3.46-1.197 5.614-1.777 1.072-3.187 1.724-4.813 2.378-.217.002-.652.003-.824-.324-.312-3.33-.452-6.331-.591-9.333z"/><path fill="#4D4A42" d="M77.938 36.988c1.41-.652 2.819-1.304 4.549-2.04 1.621 1.757 2.922 3.597 4.373 6.097.168 1.101.185 1.543.203 1.984 0 0-.034 0-.397-.025-2.159-1.012-3.955-1.998-6.002-3.007-.703-.2-1.154-.376-1.73-.867a90.26 90.26 0 0 0-.996-2.142z"/><path fill="#3E3F38" d="M87.276 43.03c-.23-.442-.248-.884-.271-1.656.286.143.578.615.892 1.376.02.287-.407.28-.62.28z"/><path fill="#5C5D56" d="M99.6 49.004c.39.761.408 1.524.392 2.67-.766.367-1.497.351-2.605-.02-.377-1.116-.376-1.877-.375-2.638l-.009-.014c.742.001 1.485.003 2.598.002z"/><path fill="#65665E" d="M109.93 35.708c-.024.346-.51.316-.755.3-.522-.497-.8-.98-1.082-1.752.412-.286.826-.283 1.552-.28.31.461.31.923.285 1.732z"/><path fill="#3C392E" d="M107.512 40.491c.01.024-.01-.024 0 0z"/><path fill="#36372F" d="M96.997 45c.3.212.376.472.11.89-.112.107-.106.111-.1-.14.004-.421.002-.592 0-.762 0 0-.005.01-.01.013z"/><path fill="#6A5C47" d="M77.015 25.036c-.002-.775-.005-1.55-.002-2.714.471-.671.937-.954 1.677-1.28.442-.033.61-.023 1.028.018.24 1.139.228 2.247-.04 3.733-.255.378-.733.35-1.05.28-.749-.06-1.18-.049-1.613-.037z"/><path fill="#A89981" d="M78.945 25.143s.478.028.715.067c.615.773.993 1.506 1.34 2.555-.565.262-1.096.208-1.843-.443-.215-1.124-.213-1.651-.212-2.179zM82.06 28.85c-.383.064-.923-.124-1.303-.576.49-.066.818.13 1.304.577z"/><path fill="#2B241E" d="M21.357 56.027c-.427.008-.844-.06-1.053-.09.2-.68.61-1.33 1.56-1.979.706.048.87.092 1.245.341.833.68 1.456 1.156 2.08 1.631-1.136.03-2.27.059-3.832.097z"/><path fill="#4E4740" d="M25.382 55.932c-.817-.477-1.44-.953-1.977-1.682.283-.284.48-.315.677-.346.828.222 1.657.445 2.562 1.104-.145.653-.398.824-.68.95 0 0-.388-.025-.582-.026z"/><path fill="#2B241E" d="M26.181 56.168c.065-.336.318-.507.672-.91.68-.031 1.228.124 1.978.483-.676.347-1.554.492-2.65.427z"/><path fill="#4E4740" d="M33.48 61.492c-.01-.027.01.027 0 0z"/><path fill="#382E1C" d="m54.992 50.992-2.408-1.183c-.67 1.867-1.336 3.735-2.01 5.601-.307.854-.628 1.703-1.261 2.57-1.115-.603-1.913-1.222-3.009-1.906-.304-.536-.311-1.006-.158-2.12a133.247 133.247 0 0 1 6.334-9.967c.985-.395 1.715-.646 2.623-.666.812.669 1.447 1.106 1.958 1.86-.75 1.463-1.375 2.608-2.015 4.096-.027.8-.04 1.258-.054 1.715z"/><path fill="#716D61" d="M52.225 44.13c-1.973 3.06-3.947 6.12-6.086 9.472-1.547.672-2.927 1.052-4.666 1.477-.59.014-.824-.016-1.291-.29-.191-.77-.148-1.298-.167-2.167-.338-1.452-.615-2.563-.507-3.657 1.421.021 2.457.027 3.6.148.106.115.539.178.539.178s.361-.279.702-.399c.77-1.7 1.199-3.28 1.967-4.868.791-.013 1.243-.02 2.014-.074 1.511.027 2.703.104 3.895.18z"/><path fill="#1F1E17" d="M25.436 52.908c-.59-1.81-.924-3.598-.946-5.39-.031-2.495.59-4.642 4.163-4.593 2.788-.703 4.771-.54 5.35 3.03.028.57-.013 1.043-.394 1.047-4.498.1-4.081 3.384-4.607 6.006a472.71 472.71 0 0 1-3.566-.1z"/><path fill="#373127" d="M29.251 53.212c.277-2.826-.14-6.11 4.658-6.047 2.128.736 3.574 1.315 5.074 1.877.055-.017.14-.093.14-.093.277 1.11.554 2.22.49 3.676-2.096.944-3.85 1.543-5.604 2.142 0 0-.045.378-.047.566-1.489-.514-2.975-1.216-4.71-2.121z"/><path fill="#625B55" d="M24.06 53.69c-.175.245-.372.276-.865.356-.46.004-.625-.04-1.028-.18-.227-.773-.216-1.45-.211-2.465.587.15 1.181.637 1.912 1.386.136.26.169.689.192.903z"/><path fill="#2B2517" d="M34.413 54.855c1.35-.687 3.104-1.286 5.261-1.887.36.523.317 1.05.158 1.782-1.748.2-3.381.197-5.419.105z"/><path fill="#3C372A" d="M13.322 30.444c.315-.274.56-.247 1.04-.262.229.007.4-.036.47.257.403.48.737.67 1.093 1.018.022.16.121.468.037.842-.438 2.32-.792 4.264-1.145 6.209-.39.127-.78.253-1.473.422-.332-1.689-.36-3.42-.43-5.583.083-1.14.208-1.847.408-2.903z"/><path fill="#59554A" d="M14.87 38.645c.3-2.082.654-4.027 1.5-6.41 1.039-.356 1.585-.272 1.977.116-.439 1.758-.725 3.213-1.15 5.19a34.117 34.117 0 0 1-.49 1.54s-.426.024-.847-.002c-.42-.026-.843-.02-.843-.02s-.095-.277-.148-.414z"/><path fill="#2A2C20" d="M16.788 39.425c.036-.684.152-1.024.805-1.548.776 1.122 1.015 2.43 1.254 3.737-.308-.086-.615-.172-1.394-.348-.509-.56-.547-1.028-.665-1.84z"/><path fill="#908B7D" d="M15.037 39.262c-.02-.203.402-.209.61-.172.117.332.027.627-.062.922a2.739 2.739 0 0 1-.548-.75z"/><path fill="#BBBAC3" d="M19.701 25.03c1.155-.094 1.993-.16 3.08-.138.248.089.274.069.264.432-.691 1.798-1.372 3.233-2.414 4.67-1.08-.022-1.8-.046-2.538-.37-.029-.9-.037-1.5.128-2.382.293-.918.412-1.556.531-2.193.212.003.423.005.95-.02z"/><path fill="#A1A29F" d="M18.047 27.524c.009.6.017 1.2.066 2.454.165 1.109.289 1.564.419 2.04.006.02-.032.03-.032.03-.545-.085-1.091-.169-2.045-.188-.409.065-.508-.242-.647-.66-.442-.629-.744-.841-1.047-1.054 0 0-.17.043-.222-.027.104-1.191.26-2.312.632-3.805.216-.372.315-.317.677-.113.974.577 1.587.95 2.2 1.323z"/><path fill="#5A5B54" d="M18.22 27.242c-.785-.09-1.398-.464-2.316-1.033.517-.513 1.34-.83 2.505-1.154.224.631.105 1.269-.188 2.187z"/><path fill="#3E3F38" d="M80.915 40.02c1.796.986 3.592 1.972 5.751 3 .681 1.792.999 3.542 1.348 5.912.032.622.104 1.09.015 1.36-.052.454-.015.64.022.825-1.712.452-3.423.905-5.631.94-.875-1.649-1.255-2.88-1.577-4.55.062-2.786.067-5.136.072-7.486z"/><path fill="#827264" d="M80.786 47.944c.38 1.232.759 2.464 1.248 3.991.11.295.405.473.121.552-.136.456.011.832.159 1.208.037.167.074.333.01.734-1.51.43-2.918.626-5.142.765-1.599-.03-2.381-.002-3.163.025-.882-.933-1.764-1.865-2.701-3.328 1.49-1.952 3.035-3.375 4.861-4.614 1.375.34 2.47.494 3.824.65.435.007.61.012.783.017z"/><path fill="#464644" d="M96.538 49.016c.473.761.472 1.522.483 2.665.012.38-.117.797-.203.997-.363.227-.623.307-.938.547-.975-.432-1.878-.97-3.102-1.735-.676-.774-1.031-1.323-1.387-1.871 1.557-.2 3.115-.401 5.147-.603z"/><path fill="#939393" d="M91.09 49.61c.657.557 1.012 1.106 1.356 1.853-1.29.195-2.567.191-4.12-.079-.312-.452-.35-.638-.145-1.142.44-.402.617-.519.772-.668.612.01 1.224.018 2.137.036zM82.32 53.533c-.154-.214-.301-.59-.208-.879.242.298.233.508.207.88z"/><path fill="#85786D" d="M81.129 63.796c-.475.285-.986.226-1.88.115-.341-.759-.3-1.467-.031-2.517.226-.342.687-.329.86-.153.407.41.652.63.91.835.034.458.07.917.14 1.72z"/><path fill="#211510" d="M81.034 61.668c-.304.202-.55-.017-1.08-.768-.447-.708-.595-.899-.743-1.09 0 0-.103-.318.404-.598.86-.36 1.213-.44 1.566-.52 0 0 .137.477.197.717-.06.777-.178 1.314-.344 2.259z"/><path fill="#443426" d="M73.862 55.443c.939-.25 1.721-.278 2.888-.224.56.562.736 1.042.956 1.946-.16.975-.365 1.525-.57 2.076-.813.828-1.627 1.655-2.704 2.377-.518-.823-.773-1.54-1.238-2.465-.219-.842-.228-1.477-.265-2.422.241-.562.509-.813.933-1.288z"/><path fill="#58504B" d="M77.379 59.253c-.038-.563.166-1.113.525-1.916.952-.228 1.75-.205 2.925-.043.406.418.411.699.372 1.19-.373.288-.726.368-1.61.563-1.01.15-1.49.183-2.212.206z"/><path fill="#625B55" d="M19.08 49.334c.801.168 1.694.653 2.723 1.427-.786-.178-1.709-.643-2.723-1.427zM18.216 48.985c.024-.102.305-.187.678-.122-.079.146-.25.143-.678.122z"/><path fill="#54554D" d="M33.002 28.005s.003-.491.009-1.056c.017-.988.03-1.41.041-1.834.295-.166.536-.39.829-.898.108-.224.514-.257.992-.035 1.632.427 2.785.631 4.02 1.12.169.46.256.636.274 1.167-1.585.775-3.1 1.195-5.001 1.597a218.99 218.99 0 0 1-1.164-.06z"/><path fill="#696A62" d="M38.811 25.018c-1.153-.205-2.306-.41-3.735-.848.25-.438.775-.642 1.563-.929.264-.083.727-.016.959 0 .909.363 1.586.708 2.12 1.329-.397.332-.652.39-.907.448z"/><path fill="#474840" d="M32.702 25.094c.338.444.326.867.31 1.61-.624-.112-1.244-.543-1.96-1.25.37-.31.835-.345 1.65-.36z"/><path fill="#66675F" d="M43.001 48.998a340.83 340.83 0 0 1-3.493-.033c-.386-.016-.47.06-.493-.242.04-1.793 1.993-4.156-1.69-3.924-.017-.36-.033-.72.299-1.43 1.09-1.75 1.831-3.148 2.87-4.497.7.075 1.102.1 1.83.15.754.1 1.182.178 1.683.576.705 1.693 1.337 3.063 1.97 4.434-.43 1.58-.858 3.16-1.634 4.853-.347.113-.36.104-.466-.008-.417-.256-.675-.177-.878.124a.01.01 0 0 0 .002-.003z"/><path fill="#C1C2BE" d="M18.946 41.473c-.338-1.166-.577-2.474-1.213-4.117-.11-1.792.175-3.247.614-5.005.153-.304.19-.313.52-.314a73.057 73.057 0 0 0 3.32-.096c.492-.232.805-.417 1.117-.602-.05 1.338-.1 2.675-.654 4.38-.904 1.076-1.303 1.784-1.75 2.751-.328 1.015-.61 1.768-.894 2.522a5.14 5.14 0 0 0-1.06.481z"/><path fill="#9C9D95" d="M34.554 28.084c1.514-.42 3.028-.84 4.89-1.675.716-.51 1.084-.607 1.495-.323 1.08 1.22 2.12 2.06 3.431 2.9.456.002.638.003.697.26-.416.737-.71 1.22-1.368 1.714a37.041 37.041 0 0 0-4.003 1.156c-1.082.388-1.885.627-2.907.823-.22-.042-.669-.058-.833-.098-.163-.04-.497.007-.497.007-.232-.832-.465-1.664-.861-3.04-.124-.937-.084-1.33-.044-1.724z"/><path fill="#4E4E46" d="M40.196 38.823c-.741 1.398-1.482 2.796-2.57 4.275-1.11-1.035-1.87-2.15-2.346-3.72 1.728-1.404 3.17-2.356 4.672-2.965.12 1.031.182 1.72.244 2.41z"/><path fill="#686961" d="M39.893 36.071c-1.442.951-2.885 1.903-4.647 2.97-.651-1.028-.984-2.17-1.026-3.815a33.067 33.067 0 0 1 1.9-2.345s.448.016.83.33c1.264.809 2.147 1.303 3.017 2.063a18.1 18.1 0 0 1-.074.797z"/><path fill="#4E4E46" d="M37.055 45.04c3.953-.473 2 1.89 1.906 3.7-1.478-.26-2.924-.839-4.67-1.58-.3-.162-.26-.636-.219-.87.932-.492 1.822-.75 2.983-1.25z"/><path fill="#A7A6AB" d="M23.526 31.023c-.534.501-.847.686-1.462.667-.56-.702-.816-1.2-1.072-1.697.681-1.436 1.362-2.87 2.07-4.67.283-.334.54-.302 1.184-.23.092 1.898-.203 3.755-.72 5.93z"/><path fill="#BBBCB4" d="M20.227 41.284c.062-1.046.345-1.8 1.073-2.897.981-.424 1.517-.506 2.053-.587.202.545.405 1.09.681 1.922-.754.89-1.583 1.492-2.71 2.199-.49-.045-.683-.195-1.097-.637z"/><path fill="#51524A" d="M35.956 32.841c-.372.655-.909 1.27-1.724 2.018.02-.542.319-1.218.922-1.953.305-.058.639-.105.802-.065z"/><path fill="#A2A39B" d="M23.32 37.47c-.503.411-1.039.493-1.974.657 0-.624.4-1.332 1.103-2.118.481.325.659.728.87 1.461z"/><path fill="#474840" d="M34.166 28.066c.348.411.308.805.225 1.49-.255.328-.467.363-.997.445-.339-.408-.36-.862-.386-1.656.252-.326.511-.311 1.158-.279z"/><path fill="#696355" d="M52.918 26.03c-.09-.36-.182-.721-.353-1.344 1.125-.415 2.331-.57 3.988-.36.456 1.08.46 1.797.118 2.493-1.483-.277-2.618-.533-3.753-.789z"/><path fill="#6A6A5D" d="M57.018 26.84c-.005-.717-.01-1.434-.015-2.51.476-.653.952-.946 1.71-1.287.281-.048.29-.04.291.374-.01 1.506-.022 2.599-.36 3.656-.76-.101-1.193-.167-1.626-.233z"/><path fill="#6A665B" d="m58.971 27.108.038-3.686c1.386-.413 2.77-.417 4.567-.42.43 1.732.445 3.465.097 5.578-1.81-.237-3.256-.854-4.702-1.472z"/><path fill="#BBBCB4" d="M44.065 30.949c.293-.483.586-.966 1.174-1.901.445-.95.595-1.448.746-1.946.641.176 1.283.353 2.26.54.334.011.097.128.078.26-.02.132-.007.267-.112.443-.215.581-.325.988-.578 1.66-.287.853-.43 1.44-.929 2.02-.833.007-1.309.02-1.975-.02-.19-.052-.57-.152-.584-.38-.014-.226-.08-.676-.08-.676z"/><path fill="#A6A7A0" d="M45.782 26.87c.052.73-.098 1.228-.42 1.923-.354.196-.536.195-1.126-.057-.613-.945-.818-1.64-.86-2.374.162-.04.44-.225.44-.225.588.167 1.176.335 1.966.734z"/><path fill="#7F8079" d="M43.707 25.939c.11.198-.169.383-.547.255-.635-.376-.892-.625-1.149-.873 0 0 .482-.133.726-.188.431.182.637.403.97.806z"/><path fill="#36261C" d="M58.644 27.073c1.773.653 3.22 1.27 5.031 1.84.366-.05.842.045 1.082.073.468.491.696.954 1.066 2.006.157 1.068.171 1.548.054 2.224-.335.442-.577.642-1.27.79-1.786.009-3.158.021-4.635-.295-1.727-1.109-3.349-1.89-5.13-2.948-1.062-.763-1.964-1.248-3.055-1.873-.445-.331-.647-.568-.797-.85.448-.619.897-1.237 1.637-1.933 1.426.18 2.561.435 4.044.712.78.087 1.213.153 1.973.254z"/><path fill="#837369" d="M50.564 28.024c.576.298.778.535 1.227 1.193.193.902.192 1.337-.137 1.761-1.106-.343-1.882-.675-2.707-1.331a10.26 10.26 0 0 0-.631-1.478s-.012-.135.054-.144a62.53 62.53 0 0 1 2.194-.001z"/><path fill="#93948C" d="M41.76 25.204c.508.365.765.614 1.238 1.03.42.862.625 1.557.965 2.501-.905-.59-1.944-1.43-3-2.841-.017-.573.018-.967.018-.967.176.053.353.106.78.277z"/><path fill="#7F8079" d="M40.832 24.822c.149.105.114.5.09.692-.394.288-.762.384-1.408.54-.365-.116-.452-.292-.621-.752.173-.342.428-.4 1.06-.568.378-.11.73-.017.879.088z"/><path fill="#212017" d="m66.009 33.02-.055-1.801c1.428-.957 2.867-1.552 4.642-2.204.601.18.867.416 1.095 1.092-1.075.939-2.114 1.437-3.485 2.02-.955.352-1.576.623-2.197.893z"/><path fill="#5C4E42" d="M68.539 32.043c1.038-.499 2.077-.997 3.302-1.714.961-.763 1.736-1.307 2.834-2.343.635-1.02.948-1.547 1.261-2.074.05.239.1.477.26 1.069.25 3.354.39 6.356.467 9.898-1.247-.01-2.432-.562-4.129-1.352-.848 1.066-2.129 2.675-3.776 4.306-1.167-1.185-1.967-2.394-2.803-3.757-.036-.156-.102-.468.257-.442 1.015-1.18 1.671-2.386 2.327-3.591z"/><path fill="#3A3426" d="M75.737 25.718c-.114.721-.427 1.249-.878 2.055-.608-.159-1.078-.596-1.695-1.219.693-.467 1.534-.749 2.573-.836z"/><path fill="#C0AF99" d="M78.628 25.072c.316.599.314 1.126.302 2.051-.224.368-.436.338-1.017.01-.54-.572-.774-.77-1.072-.892.023-.202.047-.403.122-.905.484-.312.916-.323 1.665-.264z"/><path fill="#77684F" d="M76.774 26.46c.365-.096.6.101.825.6-.137.24-.328.251-.787.157-.268-.107-.105-.536-.038-.756z"/><path fill="#605044" d="M75.898 47.093c-1.545 1.423-3.09 2.846-4.788 4.548-1.304-.527-2.454-1.335-3.608-2.585.164-.972.33-1.5.527-2.287.041-.433.053-.607.33-.875.39-1.664.516-3.235.953-4.847.52-.046.729-.05 1.274-.018 2.037 1.674 3.738 3.31 5.404 5.227-.055.465-.073.651-.092.837z"/><path fill="#4A3B27" d="M54.977 51.372c.029-.837.042-1.295.461-2.063 1.46-.298 2.512-.285 3.563.108.013 1.14.028 1.9.042 2.661.294 1.402.587 2.804.872 4.567-.44.354-.874.347-1.633.346-5.152.444-3.808-2.642-3.305-5.619z"/><path fill="#4E4432" d="M59.394 52.052c-.365-.734-.38-1.495-.402-2.962-.02-1.14-.031-1.575.3-2.03 1.018-.068 1.695-.118 2.467.164a78.368 78.368 0 0 0 1.186 2.838c-1.067.655-2.133 1.31-3.55 1.99z"/><path fill="#988D79" d="M63.3 50.059c-.719-.833-1.083-1.668-1.479-2.821-.032-.317.073-.384.406-.317.783.106 1.233.146 1.92.297.409.155.579.198.806.493.433.589.81.924 1.187 1.26-.828.362-1.656.723-2.84 1.088z"/><path fill="#6E6757" d="M66.387 48.987c-.624-.352-1.001-.687-1.07-1.434 1.1-.45 1.891-.487 2.683-.524-.167.528-.334 1.055-.685 1.792-.184.209-.68.18-.928.166z"/><path fill="#58504B" d="M79.11 59.995c.25.006.397.197.67.73.125.34-.336.327-.567.312-.27-.297-.26-.578-.103-1.042z"/><path fill="#4B4638" d="M96.884 45.095c.125.063.127.234.125.659-.332.044-.414-.225-.125-.659z"/><path fill="#7D7D7D" d="M88.748 49.399c.05.324-.127.44-.478.574-.152.049-.224-.42-.235-.655.161-.19.335-.142.713.08z"/><path fill="#38271D" d="M76.025 45.977c-1.701-1.637-3.402-3.274-5.593-5.177-.762-.506-1.035-.748-1.307-.99 1.28-1.608 2.56-3.217 3.41-4.283 1.696.79 2.881 1.342 4.3 1.68.234-.214.67-.215.886-.217.508.607.799 1.217 1 2.375-.168 1.897-.248 3.246-.608 4.744a33.831 33.831 0 0 0-2.088 1.868z"/><path fill="#8C7F76" d="M78.394 43.96c.08-1.349.159-2.698.45-4.281.666-.058 1.117.118 1.82.318.246 2.374.241 4.724.18 7.51-.232.432-.406.427-.814.108-.7-1.428-1.168-2.541-1.636-3.655z"/><path fill="#696355" d="M52.48 43.987c-1.447.067-2.639-.01-4.008-.3.391-1.034.96-1.854 1.726-2.82.444-.365.678-.595 1.151-.831.42.01.589.014.94.226 1.01.08 1.837-.047 2.86-.386.72-.413 1.246-.614 1.682-.572a215.56 215.56 0 0 1-1.906 3.786c-.73.25-1.46.502-2.445.897z"/><path fill="#797365" d="M55.103 43.321c.427-1.413 1.032-2.594 1.744-4.258.108-.483.126-.964.367-1 .242-.038.729-.06 1.011.116.633.453.984.731 1.313 1.418-.334 2.018-.645 3.628-1.19 5.228-.543.01-.853.027-1.163.04-.635-.438-1.27-.875-2.082-1.544z"/><path fill="#595345" d="M57.061 45.182c.434-.33.744-.346 1.383.01.388.881.446 1.385.505 1.888l.045 1.63c-1.044.314-2.097.301-3.541.256.233-1.177.859-2.322 1.608-3.784z"/><path fill="#717169" d="M50.001 41.014c-.569.82-1.138 1.639-1.848 2.721-.594.27-1.046.276-1.837.29-.972-1.364-1.604-2.734-2.288-4.497-.052-.392-.027-.53.347-.472 1.127.023 1.88-.013 2.935.015 1.098.69 1.895 1.317 2.691 1.943z"/><path fill="#66675F" d="M44.002 49.005c.006.007-.355.286-.355.286s-.433-.063-.54-.178c-.106-.115-.107-.113.138-.115.245-.002.737-.01.737-.01s.014.01.02.017z"/><path fill="#90918E" d="M14.831 30.439c.233-.08.535.132.955.601-.217.069-.55-.12-.955-.601z"/><path fill="#AEADB6" d="M20.631 29.994c.617.496.874.994 1.252 1.743-.814.267-1.75.283-3.022.28-.46-.475-.583-.93-.728-1.74.699-.33 1.418-.305 2.498-.283z"/><path fill="#443426" d="M78.113 44.109c.749.965 1.216 2.078 1.656 3.504-1.12.158-2.215.003-3.59-.336-.262-.37-.244-.556-.19-1.021.638-.852 1.24-1.425 2.124-2.147z"/><path fill="#8A8B83" d="M43.699 30.96c.366-.011.432.439.126.894-.813 2.685-1.32 4.914-1.827 7.143-.402-.025-.805-.05-1.505-.125-.359-.738-.42-1.428-.541-2.46-.039-.518-.019-.694.222-1.35.081-1.35-.058-2.223-.198-3.096 1.119-.331 2.238-.662 3.723-1.006z"/><path fill="#7E7F77" d="M42.324 39.021c.181-2.253.688-4.482 1.515-6.94.32-.228.7-.128.746.279-.165 2.484-.375 4.56-.584 6.638 0 0-.025.138-.046.208-.45-.006-.877-.084-1.631-.185z"/><path fill="#716D61" d="M43.877 48.877c.105.112-.387.119-.633.122-.042-.3.216-.378.633-.122z"/><path fill="#7E7F77" d="M39.696 32.116c.42.723.56 1.596.491 2.68-1.09-.282-1.973-.776-3.017-1.542.641-.511 1.444-.75 2.526-1.138z"/><path fill="#9E9F97" d="M44.375 39.056c-.165-2.135.045-4.212.4-6.643.62-.368 1.096-.38 1.987-.181.414.212.478.636.4.987-.099.826-.12 1.301-.145 2.177a2301.46 2301.46 0 0 0-.008 3.612c-.753.035-1.507.07-2.634.048z"/><path fill="#72675E" d="M47.24 32.868s-.064-.424-.122-.63c.086-.793.228-1.38.817-2.158.651-.163.856-.136 1.06-.11.777.333 1.553.665 2.539 1.271-.06.786-.33 1.298-.832 1.8-.234-.01-.702-.04-.952-.04-.417-.001-.583 0-1.045-.009a42.874 42.874 0 0 1-1.465-.124z"/><path fill="#908F87" d="M48.947 29.647c-.156.297-.361.27-.868.168-.193-.482-.083-.889.132-1.47.299.209.493.593.736 1.302z"/><path fill="#261E11" d="M60.078 34.04c1.371-.013 2.743-.025 4.623.172.723.606.937 1.001 1.152 1.396 0 0 .066.312-.186.463-.915.52-1.578.89-2.628 1.169-.903-.171-1.42-.252-2.176-.566a14.17 14.17 0 0 1-.932-2.733c.054.024.147.099.147.099z"/><path fill="#706559" d="M55.001 31.04c1.622.781 3.244 1.562 4.971 2.671.106.329.013.254-.37.268-1.123.682-1.862 1.35-2.937 2.01-.783-.01-1.23-.012-1.674.001.004.014.033.02.025-.273-.032-.677-.055-1.063-.065-1.853.026-1.21.038-2.017.05-2.823z"/><path fill="#645248" d="M54.841 30.763c.148 1.084.136 1.89-.255 3.052-1.117.302-1.854.25-2.73.002-.35-.443-.606-.632-.903-.77.002-.008-.017.004-.017.004.269-.512.538-1.024.927-1.798.12-.699.12-1.134.117-1.896.898.158 1.8.643 2.861 1.406z"/><path fill="#190E05" d="M66.212 35.634c-.574-.421-.788-.816-1.098-1.417.186-.359.428-.559.763-1.001.753-.466 1.374-.737 2.329-1.09-.323 1.122-.979 2.327-1.994 3.508z"/><path fill="#85786D" d="M63.426 37.33c.663-.37 1.326-.739 2.277-1.104 1.088 1.213 1.888 2.422 3.055 3.607.64.22.912.46 1.338.93-.055.234-.264.238-1.132.364-1.112.916-1.566 1.708-2.367 2.433-1.256-.001-2.165.066-3.295.152-.519.055-.815.087-1.098-.281.105-1.717.196-3.037.457-4.537.369-.641.567-1.102.765-1.564z"/><path fill="#36261C" d="M63.523 43.692c.91-.066 1.818-.133 3.115.12.744.938 1.1 1.557 1.456 2.176-.012.174-.024.348-.065.781-.82.297-1.612.335-2.768.531-.535.116-.705.073-1.142-.51-.376-1.391-.486-2.244-.596-3.098z"/><path fill="#5F5245" d="M68.358 45.894c-.62-.525-.976-1.144-1.372-2.014.412-1.045.866-1.837 1.667-2.71.222 1.49.096 3.06-.295 4.724z"/><path fill="#393325" d="M62.49 39.074c-.09 1.32-.181 2.64-.377 4.732-.144 1.531-.181 2.29-.22 3.048 0 0-.104.067-.167.053-.739.035-1.416.085-2.435.153-.4-.483-.46-.987-.614-1.858.216-1.977.527-3.587 1.088-5.648.564-.514.88-.556 1.58-.55.636.041.89.056 1.145.07z"/><path fill="#5B5648" d="M62.227 46.92c-.295-.824-.258-1.583-.129-2.717.389-.404.685-.436 1.204-.491.331.834.44 1.687.579 2.967-.421.388-.871.348-1.654.242z"/><path fill="#716C5E" d="M56.973 38.1s-.018.48-.035.72c-.543.442-1.069.643-2.145 1.025-1.262.19-1.975.2-2.687.209-.168-.004-.337-.008-.811-.347-.998-1.452-1.69-2.568-2.36-4.02.036-.787.05-1.237.315-1.686.417 0 .583 0 .892.188.353.427.6.619 1.141 1.012 1.418.435 2.58.622 3.741.808 0 0-.029-.005.023.294.676.798 1.3 1.297 1.926 1.796z"/><path fill="#8D8A7F" d="M48.913 36.024c.692 1.115 1.384 2.231 2.13 3.676-.167.572-.401.802-.845 1.166-.993-.478-1.79-1.105-2.888-1.795-.3-1.133-.297-2.203-.05-3.556.714-.019 1.184.245 1.653.509z"/><path fill="#534D3F" d="M52.288 40.262c.53-.218 1.243-.227 2.31-.205-.472.158-1.3.286-2.31.205zM60.963 38.977a8.921 8.921 0 0 0-1.175.168c-.58-.235-.93-.513-1.619-1.242-.615-.936-.892-1.421-1.169-1.906.74-.668 1.48-1.336 2.548-2.042.577.803.826 1.644 1.283 3.064.182 1.04.157 1.498.132 1.958z"/><path fill="#958F81" d="M56.665 35.988c.612.494.89.979 1.222 1.74.056.275-.431.297-.673.334-.866-.462-1.491-.961-2.172-1.773.392-.312.84-.31 1.623-.3z"/><path fill="#7E7F77" d="M48.935 35.687c-.491.073-.961-.19-1.673-.573-.22-.594-.199-1.069-.1-1.895.468-.312.858-.274 1.543.023.295.425.295.592.295.759-.014.45-.029.9-.065 1.686zM51.027 34.953c-.284-.145-.532-.337-.885-1.014-.142-.438-.142-.938-.142-.938s.468.03.702.04c.234.01.253-.002.264.29.021.48.032.669.052 1.049.008.19.009.573.009.573z"/><path fill="#857F71" d="M49.75 33c.25.001.25.5.25.75-.167.25-.333.25-.75.25-.25-.166-.25-.333-.25-.75.167-.25.333-.25.75-.25z"/><path fill="#3F392B" d="M61.345 39.004c-.357-.487-.332-.946-.274-1.75.548-.266 1.065-.185 1.968-.014.189.552-.01 1.013-.378 1.654-.425.166-.68.151-1.316.11z"/><path fill="#958F81" d="M51.283 35.201a.602.602 0 0 1-.02-.869c.403-.265.567-.292.732-.319.737.052 1.474.104 2.578.205.388.436.411.822.443 1.5-1.153.105-2.315-.082-3.733-.517z"/><path fill="#716C5E" d="M51.856 33.817c-.026.223-.19.25-.6.324-.258-.141-.269-.33-.292-.803.286-.153.542.036.892.48z"/></svg>